<?xml version="1.0" encoding="utf-8"?>
<!-- Generator: Adobe Illustrator 24.0.2, SVG Export Plug-In . SVG Version: 6.00 Build 0)  -->
<svg version="1.1" id="Layer_1" xmlns="http://www.w3.org/2000/svg" xmlns:xlink="http://www.w3.org/1999/xlink" x="0px" y="0px"
	 viewBox="0 0 1921 720" style="enable-background:new 0 0 1921 720;" xml:space="preserve">
<style type="text/css">
	.st0{fill:url(#SVGID_1_);filter:url(#Adobe_OpacityMaskFilter);}
	.st1{mask:url(#mask0_1_);}
	.st2{opacity:0.1;}
	.st3{fill:#929497;fill-opacity:0.3;}
	.st4{fill:#929497;fill-opacity:0.4;}
	.st5{fill:#FFFFFF;fill-opacity:0.4;}
	.st6{fill:#929497;fill-opacity:0.9;}
	.st7{opacity:0.2;fill:#F1F1F2;enable-background:new    ;}
	.st8{opacity:0.2;fill:#FFFFFF;enable-background:new    ;}
	.st9{opacity:0.1;fill:#FFFFFF;enable-background:new    ;}
	.st10{opacity:0.3;fill:url(#SVGID_2_);enable-background:new    ;}
	.st11{opacity:0.8;fill:#212123;enable-background:new    ;}
	.st12{opacity:0.1;fill:#58595B;enable-background:new    ;}
	.st13{fill:url(#SVGID_3_);}
	.st14{fill:#060506;}
	.st15{fill:#858585;}
	.st16{opacity:0.8;fill:#565656;enable-background:new    ;}
	.st17{opacity:0.1;fill:#FEFEFE;enable-background:new    ;}
	.st18{opacity:0.8;fill:#1A1A1A;enable-background:new    ;}
</style>
<defs>
	<filter id="Adobe_OpacityMaskFilter" filterUnits="userSpaceOnUse" x="-337.9" y="-591.8" width="2607" height="1961.4">
		<feColorMatrix  type="matrix" values="1 0 0 0 0  0 1 0 0 0  0 0 1 0 0  0 0 0 1 0"/>
	</filter>
</defs>
<mask maskUnits="userSpaceOnUse" x="-337.9" y="-591.8" width="2607" height="1961.4" id="mask0_1_">
	
		<linearGradient id="SVGID_1_" gradientUnits="userSpaceOnUse" x1="5024.5376" y1="-1466.3138" x2="3881.6079" y2="-53.9259" gradientTransform="matrix(-1 0 0 1 5538 1274)">
		<stop  offset="0" style="stop-color:#77648F"/>
		<stop  offset="1" style="stop-color:#FFFFFF"/>
	</linearGradient>
	<rect class="st0" width="1920" height="719"/>
</mask>
<g class="st1">
	<g class="st2">
		<path d="M69.3,1369.6l2199.7-724L1861.8-591.8l-2199.7,724L69.3,1369.6z"/>
		<path class="st3" d="M1324.3-97.9l-201.8,66.4l268.2,135.4L1324.3-97.9z"/>
		<path class="st4" d="M68.3,176.2L174.5-36.4L-143.3,68.1L68.3,176.2z"/>
		<path class="st5" d="M423.6,336.2l243.3-80.1L343.5,92.9L423.6,336.2z"/>
		<path class="st6" d="M1710.1,814.4l243.3-80.1L1630,571.1L1710.1,814.4z"/>
		<path class="st7" d="M2003.4,490.4c-140.7,46.3-292.2-30.4-338.5-171.2c-46.3-140.7,29.9-292.7,170.6-339L2003.4,490.4z"/>
		<path class="st8" d="M-118.2,144.5c119.9-3.3,232.6,71.7,272.1,191.6C193.4,456,147,583.4,48.8,651.9"/>
		<path class="st9" d="M571.6,287.5l200.2,608.2l490.4-161.4L1062,126.1L571.6,287.5z"/>
		
			<linearGradient id="SVGID_2_" gradientUnits="userSpaceOnUse" x1="298.2334" y1="422.5099" x2="639.2334" y2="405.0099" gradientTransform="matrix(1 0 0 -1 0 720)">
			<stop  offset="0" style="stop-color:#7E68AC"/>
			<stop  offset="1" style="stop-color:#7E68AC;stop-opacity:0"/>
		</linearGradient>
		<path class="st10" d="M-184.8,81.8l54.8,166.3l297.7-98L366.5,771l174.4-57.4L342.1,92.7L603.6,6.7l-54.8-166.3L-184.8,81.8z"/>
		<path class="st11" d="M881.6,918.6c-78.5-238.4-335.4-368-573.6-289.5L450,1060.7L881.6,918.6z"/>
		<path class="st12" d="M1364.2,262.3l155.2-307.4L1212-200.3l-155.1,307.4L1364.2,262.3z"/>
		
			<linearGradient id="SVGID_3_" gradientUnits="userSpaceOnUse" x1="836.7054" y1="429.1564" x2="2038.3333" y2="-55.2737" gradientTransform="matrix(1 0 0 -1 0 720)">
			<stop  offset="0" style="stop-color:#6B6B6B"/>
			<stop  offset="0.7439" style="stop-color:#3C3C3D"/>
			<stop  offset="1" style="stop-color:#404041"/>
		</linearGradient>
		<path class="st13" d="M1920.4,712.5l-574.6-271.2l78.8,239.6l-24.6,8.1l-137.9,45.4l-164.7-500.3l-41.8-126.8l864.6,425.7V712.5z"
			/>
		<path class="st14" d="M1519.7-45.5l-216.3-104.8l-93-282.5l164.1-54L1519.7-45.5z"/>
		<path class="st15" d="M950.5,417.8c-104.4,34.4-161.2,146.9-126.8,251.3c34.4,104.4,146.9,161.2,251.3,126.8
			c104.4-34.4,161.2-146.9,126.8-251.3C1167.5,440.2,1054.9,383.4,950.5,417.8z"/>
		<path class="st16" d="M1110.8-252.7c-68.2,22.5-105.3,96-82.9,164.2c22.5,68.2,96,105.3,164.2,82.9c68.2-22.5,105.3-96,82.9-164.2
			C1252.6-238,1179.1-275.1,1110.8-252.7z"/>
		<path class="st17" d="M1274.9,220.3L493.8-175L254.1-96.1L1351.5,453l-64.5-196.1L1274.9,220.3z"/>
		<path class="st18" d="M550.6-160.2l104.9,318.7l213.8-423.6L550.6-160.2z"/>
	</g>
</g>
</svg>
