<?xml version="1.0" encoding="utf-8"?>
<!-- Generator: Adobe Illustrator 24.0.2, SVG Export Plug-In . SVG Version: 6.00 Build 0)  -->
<svg version="1.1" id="Layer_1" xmlns="http://www.w3.org/2000/svg" xmlns:xlink="http://www.w3.org/1999/xlink" x="0px" y="0px"
	 viewBox="0 0 686.5 510.8" style="enable-background:new 0 0 686.5 510.8;" xml:space="preserve">
<style type="text/css">
	.st0{fill:#FFFFFF;}
	.st1{fill:#8F90A3;}
	.st2{fill:#434468;}
	.st3{fill:url(#SVGID_1_);fill-opacity:0.2;}
	.st4{fill:none;stroke:url(#SVGID_2_);stroke-width:2.1185;stroke-linecap:round;stroke-linejoin:round;}
	.st5{fill:#5AC5A1;}
	.st6{fill:none;stroke:#A0B1C6;stroke-width:1.1769;stroke-opacity:0.27;}
	.st7{fill-rule:evenodd;clip-rule:evenodd;fill:#FFFFFF;}
	.st8{fill:#FFFFFF;fill-opacity:0.88;}
	.st9{opacity:0.1;}
	.st10{fill:none;stroke:#434468;stroke-width:2.118;stroke-linecap:round;stroke-linejoin:round;}
	.st11{fill:none;stroke:#5AC5A1;stroke-width:1.3473;stroke-linecap:round;stroke-linejoin:round;}
	.st12{fill:none;stroke:#5AC5A1;stroke-width:2.118;stroke-linecap:round;stroke-linejoin:round;}
	.st13{fill:url(#SVGID_3_);fill-opacity:0.2;}
	.st14{fill:url(#SVGID_4_);fill-opacity:0.2;}
	.st15{fill:none;stroke:#FC7373;stroke-width:2.118;stroke-linecap:round;stroke-linejoin:round;}
	.st16{fill:#FC7373;}
	.st17{fill:none;stroke:#A0B1C6;stroke-width:2;stroke-opacity:0.27;}
	.st18{fill:none;stroke:#FFFFFF;stroke-width:1.1667;}
</style>
<title>Rectangle 2</title>
<path class="st0" d="M89.5,299.7h369c2.6,0,4.7,2.1,4.7,4.7V505c0,2.6-2.1,4.7-4.7,4.7h-369c-2.6,0-4.7-2.1-4.7-4.7V304.5
	C84.8,301.9,86.9,299.7,89.5,299.7z"/>
<path class="st1" d="M118.3,359.5h-1.6l-6.8-10.4h-0.1c0.1,1.2,0.1,2.3,0.1,3.4v7h-1.3v-12.4h1.6l6.7,10.3h0.1c0-0.2,0-0.6-0.1-1.5
	c0-0.8-0.1-1.4,0-1.8v-7.1h1.3V359.5z M122.9,359.5h-1.4v-9.3h1.4V359.5z M121.3,347.7c0-0.3,0.1-0.6,0.2-0.7
	c0.2-0.2,0.4-0.2,0.6-0.2c0.2,0,0.4,0.1,0.6,0.2c0.2,0.2,0.2,0.4,0.2,0.7c0,0.3-0.1,0.6-0.2,0.7c-0.2,0.2-0.4,0.2-0.6,0.2
	c-0.2,0-0.4-0.1-0.6-0.2C121.4,348.2,121.3,348,121.3,347.7z M127.2,354.7c0.2-0.3,0.6-0.8,1.1-1.4l3-3.2h1.7l-3.8,4l4,5.3h-1.7
	l-3.3-4.4l-1.1,0.9v3.5h-1.4v-13.2h1.4v7C127.2,353.6,127.2,354.1,127.2,354.7L127.2,354.7z M138.9,359.7c-1.4,0-2.5-0.4-3.3-1.3
	c-0.8-0.8-1.2-2-1.2-3.5c0-1.5,0.4-2.7,1.1-3.6c0.7-0.9,1.7-1.3,3-1.3c1.2,0,2.1,0.4,2.8,1.2c0.7,0.8,1,1.8,1,3v0.9h-6.4
	c0,1.1,0.3,1.9,0.8,2.5c0.5,0.6,1.3,0.8,2.2,0.8c1,0,2-0.2,3-0.6v1.3c-0.5,0.2-1,0.4-1.4,0.5C140,359.6,139.5,359.7,138.9,359.7z
	 M138.5,351.2c-0.7,0-1.3,0.2-1.8,0.7c-0.4,0.5-0.7,1.2-0.8,2h4.9c0-0.9-0.2-1.6-0.6-2C139.8,351.4,139.2,351.2,138.5,351.2z
	 M146.2,357.5l0.1,0.2c-0.1,0.6-0.4,1.2-0.6,2c-0.3,0.8-0.6,1.4-0.9,2.1h-1.1c0.2-0.6,0.3-1.3,0.5-2.2c0.2-0.9,0.3-1.6,0.4-2.1
	H146.2z M153.7,359.5v-12.4h1.4v12.4H153.7z M164.6,359.5v-6c0-0.8-0.2-1.3-0.5-1.7c-0.3-0.4-0.9-0.6-1.6-0.6c-1,0-1.7,0.3-2.1,0.8
	c-0.5,0.5-0.7,1.4-0.7,2.6v4.9h-1.4v-9.3h1.1l0.2,1.3h0.1c0.3-0.5,0.7-0.8,1.2-1.1c0.5-0.3,1.1-0.4,1.7-0.4c1.1,0,2,0.3,2.5,0.8
	c0.6,0.5,0.8,1.4,0.8,2.6v6.1H164.6z M172.7,359.7c-1.3,0-2.4-0.4-3.1-1.2c-0.7-0.8-1.1-2-1.1-3.5c0-1.6,0.4-2.8,1.1-3.6
	c0.8-0.8,1.8-1.3,3.2-1.3c0.4,0,0.9,0,1.3,0.1c0.4,0.1,0.8,0.2,1,0.3l-0.4,1.2c-0.3-0.1-0.6-0.2-1-0.3c-0.4-0.1-0.7-0.1-1-0.1
	c-1.9,0-2.8,1.2-2.8,3.6c0,1.1,0.2,2,0.7,2.6c0.5,0.6,1.1,0.9,2,0.9c0.8,0,1.6-0.2,2.4-0.5v1.2C174.4,359.5,173.6,359.7,172.7,359.7
	z"/>
<path class="st2" d="M122.6,337h-3.3l-8-12.9h-0.1l0.1,0.7c0.1,1.4,0.2,2.6,0.2,3.8v8.4H109v-16.2h3.2l8,12.9h0.1
	c0-0.2,0-0.8-0.1-1.9c0-1.1-0.1-1.9-0.1-2.5v-8.5h2.4V337z M138.8,337h-3.1l-5.1-7.4l-1.6,1.3v6.1h-2.7v-16.2h2.7v7.8
	c0.7-0.9,1.4-1.7,2.2-2.6l4.4-5.2h3c-2.8,3.3-4.9,5.7-6.1,7.1L138.8,337z M149.7,337h-9.2v-16.2h9.2v2.2h-6.5v4.4h6.1v2.2h-6.1v5.1
	h6.5V337z"/>
<path class="st1" d="M142.4,488.5c0,1.4-0.4,2.6-1.1,3.4c-0.7,0.8-1.7,1.2-3.1,1.2c-1.3,0-2.4-0.4-3.1-1.2c-0.7-0.8-1.1-1.9-1.1-3.4
	c0-1.5,0.4-2.6,1.1-3.4c0.7-0.8,1.8-1.2,3.1-1.2c1.3,0,2.3,0.4,3.1,1.2C142.1,485.9,142.4,487,142.4,488.5z M135.7,488.5
	c0,1.1,0.2,1.9,0.7,2.5c0.4,0.6,1.1,0.8,2,0.8c0.9,0,1.5-0.3,2-0.8c0.4-0.6,0.7-1.4,0.7-2.5c0-1.1-0.2-1.9-0.7-2.5
	c-0.4-0.6-1.1-0.8-1.9-0.8c-0.9,0-1.5,0.3-2,0.8C135.9,486.6,135.7,487.4,135.7,488.5z M146.9,493c-1,0-1.8-0.3-2.3-0.9
	c-0.5-0.6-0.8-1.4-0.8-2.6c0-1.1,0.3-2,0.8-2.6c0.6-0.6,1.4-0.9,2.4-0.9c0.7,0,1.3,0.1,1.9,0.4l-0.4,1.1c-0.6-0.2-1.1-0.4-1.5-0.4
	c-1.2,0-1.7,0.8-1.7,2.3c0,0.8,0.1,1.3,0.4,1.7c0.3,0.4,0.7,0.6,1.3,0.6c0.6,0,1.2-0.2,1.8-0.5v1.2c-0.3,0.2-0.5,0.3-0.8,0.3
	C147.7,493,147.3,493,146.9,493z M152.9,491.9c0.3,0,0.7-0.1,1-0.2v1.1c-0.2,0.1-0.4,0.1-0.6,0.2c-0.2,0-0.5,0.1-0.8,0.1
	c-1.4,0-2-0.7-2-2.1v-3.6h-0.9v-0.6l1-0.5l0.5-1.4h0.9v1.5h1.9v1.1h-1.9v3.6c0,0.3,0.1,0.6,0.3,0.8
	C152.4,491.8,152.6,491.9,152.9,491.9z M164,492.9h-6v-1.1l2.3-2.3c0.7-0.7,1.1-1.2,1.3-1.5c0.2-0.3,0.4-0.6,0.5-0.8
	c0.1-0.3,0.2-0.5,0.2-0.8c0-0.4-0.1-0.7-0.4-0.9c-0.2-0.2-0.6-0.3-1-0.3c-0.3,0-0.7,0.1-1,0.2c-0.3,0.1-0.7,0.4-1.1,0.7l-0.8-0.9
	c0.5-0.4,1-0.7,1.4-0.9c0.5-0.2,1-0.3,1.5-0.3c0.8,0,1.5,0.2,2,0.7c0.5,0.4,0.7,1,0.7,1.7c0,0.4-0.1,0.8-0.2,1.1
	c-0.1,0.4-0.4,0.7-0.7,1.1c-0.3,0.4-0.8,0.9-1.5,1.5l-1.5,1.5v0.1h4.2V492.9z M171.2,488.5c0,1.5-0.2,2.7-0.7,3.4
	c-0.5,0.8-1.3,1.1-2.3,1.1c-1,0-1.7-0.4-2.2-1.2c-0.5-0.8-0.8-1.9-0.8-3.4c0-1.6,0.2-2.7,0.7-3.5c0.5-0.7,1.3-1.1,2.3-1.1
	c1,0,1.7,0.4,2.3,1.2C170.9,485.8,171.2,487,171.2,488.5z M166.6,488.5c0,1.2,0.1,2.1,0.4,2.6c0.3,0.5,0.7,0.8,1.2,0.8
	s0.9-0.3,1.2-0.8c0.3-0.5,0.4-1.4,0.4-2.6c0-1.2-0.1-2.1-0.4-2.6c-0.3-0.5-0.7-0.8-1.2-0.8s-0.9,0.3-1.2,0.8
	C166.7,486.4,166.6,487.3,166.6,488.5z M176.4,492.9H175v-5.7c0-0.7,0-1.2,0-1.6c-0.1,0.1-0.2,0.2-0.3,0.3c-0.1,0.1-0.6,0.5-1.4,1.1
	l-0.7-0.9l2.6-2.1h1.2V492.9z M182.4,483.9c0.8,0,1.5,0.2,2,0.6c0.5,0.4,0.7,0.9,0.7,1.6c0,0.9-0.5,1.6-1.6,2.2
	c0.7,0.3,1.2,0.7,1.5,1.1c0.3,0.4,0.4,0.8,0.4,1.3c0,0.7-0.3,1.3-0.8,1.8c-0.5,0.4-1.3,0.7-2.2,0.7c-1,0-1.7-0.2-2.2-0.6
	c-0.5-0.4-0.8-1-0.8-1.8c0-0.5,0.1-0.9,0.4-1.3c0.3-0.4,0.7-0.7,1.4-1.1c-0.5-0.3-0.9-0.7-1.2-1c-0.2-0.4-0.3-0.8-0.3-1.2
	c0-0.6,0.3-1.2,0.8-1.5C180.9,484.1,181.5,483.9,182.4,483.9z M180.7,490.6c0,0.4,0.1,0.7,0.4,1c0.3,0.2,0.7,0.3,1.2,0.3
	c0.5,0,0.9-0.1,1.2-0.4c0.3-0.2,0.4-0.6,0.4-1c0-0.3-0.1-0.6-0.4-0.9c-0.3-0.3-0.7-0.5-1.2-0.8l-0.2-0.1c-0.5,0.2-0.9,0.5-1.2,0.8
	C180.8,489.9,180.7,490.3,180.7,490.6z M182.3,485c-0.4,0-0.7,0.1-1,0.3c-0.2,0.2-0.4,0.5-0.4,0.8c0,0.2,0,0.4,0.1,0.6
	c0.1,0.2,0.2,0.3,0.4,0.5c0.2,0.1,0.5,0.3,0.9,0.5c0.5-0.2,0.8-0.4,1-0.7c0.2-0.2,0.3-0.5,0.3-0.8c0-0.3-0.1-0.6-0.4-0.8
	C183.1,485.1,182.8,485,182.3,485z"/>
<path class="st1" d="M249.4,495.4c-0.4,0-0.7-0.1-1-0.2V494c0.3,0.1,0.6,0.1,0.9,0.1c0.8,0,1.2-0.5,1.2-1.5V484h1.5v8.6
	c0,0.9-0.2,1.6-0.7,2.1C250.9,495.2,250.3,495.4,249.4,495.4z M258.3,492.9L258,492h0c-0.3,0.4-0.7,0.7-1,0.8
	c-0.3,0.1-0.8,0.2-1.3,0.2c-0.7,0-1.2-0.2-1.6-0.5c-0.4-0.4-0.6-0.9-0.6-1.5c0-0.7,0.3-1.2,0.8-1.6c0.5-0.4,1.3-0.5,2.4-0.6l1.2,0
	v-0.4c0-0.4-0.1-0.8-0.3-1c-0.2-0.2-0.5-0.3-0.9-0.3c-0.3,0-0.7,0.1-1,0.2c-0.3,0.1-0.6,0.2-0.9,0.4l-0.5-1c0.4-0.2,0.8-0.3,1.2-0.4
	c0.4-0.1,0.8-0.2,1.2-0.2c0.9,0,1.5,0.2,1.9,0.6c0.4,0.4,0.7,1,0.7,1.8v4.5H258.3z M256.2,491.9c0.5,0,0.9-0.1,1.2-0.4
	c0.3-0.3,0.5-0.7,0.5-1.2v-0.6l-0.9,0c-0.7,0-1.2,0.1-1.5,0.3c-0.3,0.2-0.5,0.5-0.5,0.9c0,0.3,0.1,0.5,0.3,0.7
	C255.6,491.9,255.8,491.9,256.2,491.9z M267.3,492.9h-1.4v-4.1c0-0.5-0.1-0.9-0.3-1.2c-0.2-0.3-0.5-0.4-1-0.4c-0.6,0-1,0.2-1.3,0.5
	c-0.3,0.4-0.4,1-0.4,1.8v3.3h-1.4v-6.7h1.1l0.2,0.9h0.1c0.2-0.3,0.5-0.6,0.9-0.7c0.4-0.2,0.8-0.3,1.2-0.3c1.6,0,2.4,0.8,2.4,2.5
	V492.9z M278,492.9h-6v-1.1l2.3-2.3c0.7-0.7,1.1-1.2,1.3-1.5c0.2-0.3,0.4-0.6,0.5-0.8c0.1-0.3,0.2-0.5,0.2-0.8
	c0-0.4-0.1-0.7-0.4-0.9c-0.2-0.2-0.6-0.3-1-0.3c-0.3,0-0.7,0.1-1,0.2c-0.3,0.1-0.7,0.4-1.1,0.7l-0.8-0.9c0.5-0.4,1-0.7,1.4-0.9
	c0.5-0.2,1-0.3,1.5-0.3c0.8,0,1.5,0.2,2,0.7c0.5,0.4,0.7,1,0.7,1.7c0,0.4-0.1,0.8-0.2,1.1c-0.1,0.4-0.4,0.7-0.7,1.1
	c-0.3,0.4-0.8,0.9-1.5,1.5l-1.5,1.5v0.1h4.2V492.9z M285.1,488.5c0,1.5-0.2,2.7-0.7,3.4c-0.5,0.8-1.3,1.1-2.3,1.1
	c-1,0-1.7-0.4-2.2-1.2s-0.8-1.9-0.8-3.4c0-1.6,0.2-2.7,0.7-3.5c0.5-0.7,1.3-1.1,2.3-1.1c1,0,1.7,0.4,2.3,1.2
	C284.9,485.8,285.1,487,285.1,488.5z M280.6,488.5c0,1.2,0.1,2.1,0.4,2.6c0.3,0.5,0.7,0.8,1.2,0.8c0.5,0,0.9-0.3,1.2-0.8
	c0.3-0.5,0.4-1.4,0.4-2.6c0-1.2-0.1-2.1-0.4-2.6c-0.3-0.5-0.7-0.8-1.2-0.8c-0.5,0-0.9,0.3-1.2,0.8
	C280.7,486.4,280.6,487.3,280.6,488.5z M290.4,492.9H289v-5.7c0-0.7,0-1.2,0-1.6c-0.1,0.1-0.2,0.2-0.3,0.3c-0.1,0.1-0.6,0.5-1.4,1.1
	l-0.7-0.9l2.6-2.1h1.2V492.9z M299.4,487.8c0,1.8-0.4,3.1-1.1,3.9c-0.7,0.9-1.8,1.3-3.2,1.3c-0.5,0-0.9,0-1.2-0.1v-1.2
	c0.4,0.1,0.7,0.2,1.1,0.2c1,0,1.7-0.3,2.2-0.8c0.5-0.5,0.7-1.3,0.8-2.4h-0.1c-0.2,0.4-0.5,0.6-0.9,0.8c-0.3,0.2-0.7,0.2-1.2,0.2
	c-0.8,0-1.4-0.2-1.9-0.7c-0.4-0.5-0.7-1.2-0.7-2c0-0.9,0.3-1.7,0.8-2.2c0.5-0.6,1.2-0.8,2.1-0.8c0.6,0,1.2,0.2,1.7,0.5
	c0.5,0.3,0.8,0.8,1.1,1.3C299.2,486.3,299.4,487,299.4,487.8z M296.3,485.1c-0.5,0-0.9,0.2-1.1,0.5c-0.3,0.3-0.4,0.8-0.4,1.4
	c0,0.5,0.1,0.9,0.4,1.2c0.2,0.3,0.6,0.4,1.1,0.4c0.5,0,0.9-0.1,1.2-0.4c0.3-0.3,0.5-0.6,0.5-1c0-0.4-0.1-0.7-0.2-1
	c-0.1-0.3-0.3-0.6-0.6-0.7C296.9,485.2,296.6,485.1,296.3,485.1z"/>
<path class="st1" d="M383,492.9l-0.9-2.5h-3.4l-0.9,2.5h-1.5l3.3-8.9h1.6l3.3,8.9H383z M381.7,489.2l-0.8-2.4
	c-0.1-0.2-0.1-0.4-0.3-0.8c-0.1-0.3-0.2-0.6-0.2-0.8c-0.1,0.5-0.3,1-0.5,1.6l-0.8,2.3H381.7z M389,493c-0.8,0-1.5-0.3-2-0.9h-0.1
	c0.1,0.6,0.1,0.9,0.1,1v2.8h-1.4v-9.7h1.2c0,0.1,0.1,0.4,0.2,0.9h0.1c0.4-0.7,1.1-1,2-1c0.8,0,1.5,0.3,2,0.9
	c0.5,0.6,0.7,1.5,0.7,2.6c0,1.1-0.2,2-0.7,2.6C390.5,492.7,389.8,493,389,493z M388.6,487.2c-0.6,0-1,0.2-1.2,0.5
	c-0.3,0.3-0.4,0.9-0.4,1.6v0.2c0,0.8,0.1,1.4,0.4,1.8c0.3,0.4,0.7,0.5,1.3,0.5c0.5,0,0.9-0.2,1.1-0.6c0.3-0.4,0.4-1,0.4-1.7
	c0-0.8-0.1-1.3-0.4-1.7C389.6,487.4,389.2,487.2,388.6,487.2z M396.8,486.1c0.3,0,0.5,0,0.7,0.1l-0.1,1.3c-0.2,0-0.4-0.1-0.6-0.1
	c-0.6,0-1,0.2-1.4,0.6c-0.4,0.4-0.5,0.9-0.5,1.5v3.5h-1.4v-6.7h1.1l0.2,1.2h0.1c0.2-0.4,0.5-0.7,0.9-1
	C396,486.2,396.3,486.1,396.8,486.1z M407.5,492.9h-6v-1.1l2.3-2.3c0.7-0.7,1.1-1.2,1.3-1.5c0.2-0.3,0.4-0.6,0.5-0.8
	c0.1-0.3,0.2-0.5,0.2-0.8c0-0.4-0.1-0.7-0.4-0.9c-0.2-0.2-0.6-0.3-1-0.3c-0.3,0-0.7,0.1-1,0.2c-0.3,0.1-0.7,0.4-1.1,0.7l-0.8-0.9
	c0.5-0.4,1-0.7,1.4-0.9c0.5-0.2,1-0.3,1.5-0.3c0.8,0,1.5,0.2,2,0.7c0.5,0.4,0.7,1,0.7,1.7c0,0.4-0.1,0.8-0.2,1.1
	c-0.1,0.4-0.4,0.7-0.7,1.1c-0.3,0.4-0.8,0.9-1.5,1.5l-1.5,1.5v0.1h4.2V492.9z M414.6,488.5c0,1.5-0.2,2.7-0.7,3.4
	c-0.5,0.8-1.3,1.1-2.3,1.1c-1,0-1.7-0.4-2.2-1.2c-0.5-0.8-0.8-1.9-0.8-3.4c0-1.6,0.2-2.7,0.7-3.5c0.5-0.7,1.3-1.1,2.3-1.1
	c1,0,1.7,0.4,2.3,1.2C414.4,485.8,414.6,487,414.6,488.5z M410,488.5c0,1.2,0.1,2.1,0.4,2.6c0.3,0.5,0.6,0.8,1.2,0.8
	c0.5,0,0.9-0.3,1.2-0.8c0.3-0.5,0.4-1.4,0.4-2.6c0-1.2-0.1-2.1-0.4-2.6c-0.3-0.5-0.7-0.8-1.2-0.8c-0.5,0-0.9,0.3-1.2,0.8
	C410.1,486.4,410,487.3,410,488.5z M419.9,492.9h-1.4v-5.7c0-0.7,0-1.2,0-1.6c-0.1,0.1-0.2,0.2-0.3,0.3c-0.1,0.1-0.6,0.5-1.4,1.1
	l-0.7-0.9l2.6-2.1h1.2V492.9z M428.8,487.8c0,1.8-0.4,3.1-1.1,3.9c-0.7,0.9-1.8,1.3-3.2,1.3c-0.5,0-0.9,0-1.2-0.1v-1.2
	c0.4,0.1,0.7,0.2,1.1,0.2c1,0,1.7-0.3,2.2-0.8c0.5-0.5,0.7-1.3,0.8-2.4h-0.1c-0.2,0.4-0.5,0.6-0.9,0.8c-0.3,0.2-0.7,0.2-1.2,0.2
	c-0.8,0-1.4-0.2-1.9-0.7c-0.5-0.5-0.7-1.2-0.7-2c0-0.9,0.3-1.7,0.8-2.2c0.5-0.6,1.2-0.8,2.1-0.8c0.6,0,1.2,0.2,1.7,0.5
	c0.5,0.3,0.8,0.8,1.1,1.3C428.7,486.3,428.8,487,428.8,487.8z M425.7,485.1c-0.5,0-0.9,0.2-1.1,0.5c-0.3,0.3-0.4,0.8-0.4,1.4
	c0,0.5,0.1,0.9,0.4,1.2c0.2,0.3,0.6,0.4,1.1,0.4c0.5,0,0.9-0.1,1.2-0.4c0.3-0.3,0.5-0.6,0.5-1c0-0.4-0.1-0.7-0.2-1
	c-0.1-0.3-0.3-0.6-0.6-0.7C426.3,485.2,426,485.1,425.7,485.1z"/>
<linearGradient id="SVGID_1_" gradientUnits="userSpaceOnUse" x1="274.0247" y1="-2131.7893" x2="274.6359" y2="-2241.6885" gradientTransform="matrix(1 0 0 -1 0 -1716.8737)">
	<stop  offset="0" style="stop-color:#62EFA9"/>
	<stop  offset="0.4531" style="stop-color:#5AC5A1;stop-opacity:0"/>
</linearGradient>
<path class="st3" d="M85.2,433.3c3.9-1,6.9-1.9,11.5-2.8c1.3-0.3,1.3,0.4,2,0.5c0,0,0.5-0.7,1.4-0.1c0.1,0.1,6.7,1.7,8.5,0.8
	c0.5-0.3,0.7-1.6,1.8-0.9c1,0.7,1.8,0.1,3.5,0.3c1.5,0.2,3.4-2,3.6-2.2c1.3-1.4,0.6-1,3.7,0c0.9,0.3,4,0.4,4,0.5
	c0.1,0.2,0.7,1.9,2,1.7c1.5-0.3,3.4-0.6,4.2-0.9c1.3-0.6,1.1-2.4,2.2-1.8c0.5,0.3,2.6,2,5.3,1.4c4.6-0.9,2.2-0.2,7.6,0.2
	c3.7,0.2,5.9-1.2,8-1c2.5,0.2,1.6,2.2,2.6,0.2c0.9-2-0.3-2.2,1.8-4.3c0.8-0.8,2.1-0.2,3.1,0.1c1.3,0.5,7.9-1.9,8.4-2.1
	c3.1-1.2,1.7,0,4,0.7c2.7,0.9,11.3-2,12.5-2.3c5.2-1.4,2.2,1.6,2.4,2.1c0.1,0.5-0.2,3.7,5.2,2c1.1-0.4,2.9,1.6,3.3,1.9
	c2.5,1.6,4.2-0.6,5.5-1c2.3-0.8,3.5,1.7,5.6,2.5c2.5,1,6.1-1.6,6.8-2c1.2-0.7-0.2,0.6,1.1-0.1c1.3-0.6,2-3.6,5.3-3.8
	c1.5-0.1,1.5,1.4,2.7,1.4c2.7,0,2.2-1.7,4.4-0.8c0.6,0.3,4.8,2.4,6.9,2.3c2-0.1,9.4-2.5,10.1-2.2c0.5,0.3,2.4,2.5,4,2.2
	c3.3-0.5,6.4-2.7,11.8-1.6c2.6,0.5,3.5,1.2,7.6,0.8c1.7-0.1,3.7,1.5,4.9,1.7c2.2,0.5,6.9-1,7.7-1.3c3-0.8,0.6,0.4,2.9-0.1
	c4.2-0.8,5-2,9-2.8c2.6-0.5,0.8,1.2,2.8,1.1c3.2-0.1,7.2-1.5,10.6-1.3c2.3,0.1,0.2,1.3,3.7,1.4c2.9,0,5-0.8,7.6-0.2
	c3,0.7,1.7,0.8,6,0.2l0.1,0c2.1-0.3,10.3-1.6,13.2-1.2c2.4,0.3,2.2,2,6.8,1.3c3.6-0.6,8.1-1.4,10.4-2.2c0.2-0.1,0.4-0.1,0.3-0.1
	c-0.1,0-0.2,0.1-0.3,0.1c-0.2,0.1-0.4,0.1-0.4,0.2c-0.3,0.3,1.5-0.1,1.8-0.1c2.6-0.4,12-2,15.6-1.7c4.6,0.3,0.3,1,7.6,0
	c4.9-0.7,7.5-4.3,9.4-3c2.2,1.5,7.2-4.2,12.4-4.8c4.7-0.6,10,11.3,12.4,12.2c3.3,1.3,3.3-3.8,7.5-4.7c9,2.1,8.7-1.9,9-1.7
	c1.3,0.6,7,4.1,9.6,4.6c6,1.2,6.5-2.6,14.2-2.6c3.2,0,1.7,0.6,6.1,0c1.1-0.1,1.8-0.3,3.1-0.3v66.7h-378V433.3z"/>
<linearGradient id="SVGID_2_" gradientUnits="userSpaceOnUse" x1="89.8611" y1="-2128.9746" x2="482.2459" y2="-2156.8562" gradientTransform="matrix(1 0 0 -1 0 -1716.8737)">
	<stop  offset="0" style="stop-color:#62EFA9"/>
	<stop  offset="1" style="stop-color:#5AC5A1"/>
</linearGradient>
<path class="st4" d="M85.2,434c3.9-1,6.9-2,11.5-2.9c1.3-0.3,1.3,0.4,2,0.5c0,0,0.5-0.7,1.4-0.1c0.1,0.1,6.7,1.7,8.5,0.8
	c0.5-0.3,0.7-1.6,1.8-0.9c1,0.7,1.8,0.1,3.5,0.3c1.5,0.2,3.4-2.1,3.6-2.3c1.3-1.5,0.6-1,3.7,0c0.9,0.3,4,0.4,4,0.5
	c0.1,0.2,0.7,2,2,1.8c1.5-0.3,3.4-0.6,4.2-1c1.3-0.6,1.1-2.5,2.2-1.9c0.5,0.3,2.6,2.1,5.3,1.5c4.6-1,2.2-0.2,7.6,0.2
	c3.7,0.3,5.9-1.3,8-1c2.5,0.2,1.6,2.3,2.6,0.2c0.9-2-0.3-2.3,1.8-4.4c0.8-0.8,2.1-0.2,3.1,0.1c1.3,0.5,7.9-1.9,8.4-2.1
	c3.1-1.2,1.7,0,4,0.7c2.7,1,11.3-2.1,12.5-2.4c5.2-1.5,2.2,1.7,2.4,2.2c0.1,0.5-0.2,3.9,5.2,2.1c1.1-0.4,2.9,1.7,3.3,1.9
	c2.5,1.7,4.2-0.6,5.5-1.1c2.3-0.8,3.5,1.8,5.6,2.6c2.5,1,6.1-1.7,6.8-2.1c1.2-0.7-0.2,0.6,1.1-0.1c1.3-0.7,2-3.7,5.3-4
	c1.5-0.1,1.5,1.4,2.7,1.4c2.7,0,2.2-1.7,4.4-0.8c0.6,0.3,4.8,2.5,6.9,2.4c2-0.1,9.4-2.6,10.1-2.3c0.5,0.3,2.4,2.6,4,2.3
	c3.3-0.6,6.4-2.8,11.8-1.6c2.6,0.6,3.5,1.2,7.6,0.8c1.7-0.1,3.7,1.5,4.9,1.8c2.2,0.5,6.9-1.1,7.7-1.3c3-0.9,0.6,0.4,2.9-0.1
	c4.2-0.8,5-2.1,9-2.9c2.6-0.5,0.8,1.2,2.8,1.1c3.2-0.1,7.2-1.5,10.6-1.4c2.3,0.1,0.2,1.4,3.7,1.4c2.9,0,5-0.9,7.6-0.2
	c3,0.7,1.7,0.9,6,0.2c1.8-0.3,10.4-1.7,13.4-1.3c2.4,0.3,2.2,2.1,6.8,1.3c3.7-0.6,8.5-1.5,10.7-2.3c0.3-0.1-0.6,0.2-0.7,0.3
	c-0.3,0.3,1.5-0.1,1.8-0.1c2.6-0.4,12-2,15.6-1.8c4.6,0.4,0.3,1,7.6,0c4.9-0.7,7.5-4.5,9.4-3.1c2.2,1.5,7.2-4.4,12.4-5
	c4.7-0.6,10,11.7,12.4,12.6c3.3,1.4,3.3-3.9,7.5-4.8c9,2.1,8.7-2,9-1.8c1.3,0.6,7,4.2,9.6,4.7c6,1.2,6.5-2.7,14.2-2.7
	c3.2,0,1.7,0.6,6.1,0c1.1-0.1,1.8-0.3,3.1-0.3"/>
<path class="st5" d="M402.8,366.1h-3.2v-1.4h3.2v-3.3h1.4v3.3h3.2v1.4h-3.2v3.3h-1.4V366.1z M414.6,371.2h-1.9v-7.6
	c0-0.9,0-1.6,0.1-2.2c-0.1,0.1-0.3,0.3-0.5,0.4c-0.2,0.2-0.8,0.6-1.8,1.5l-0.9-1.2l3.5-2.7h1.6V371.2z M418.8,370.2
	c0-0.4,0.1-0.7,0.3-0.9c0.2-0.2,0.5-0.3,0.9-0.3c0.4,0,0.7,0.1,0.9,0.3c0.2,0.2,0.3,0.5,0.3,0.9c0,0.4-0.1,0.7-0.3,0.9
	c-0.2,0.2-0.5,0.3-0.9,0.3c-0.4,0-0.7-0.1-0.9-0.3C418.9,370.8,418.8,370.5,418.8,370.2z M430.9,364.4c0,2.3-0.5,4-1.4,5.2
	c-0.9,1.1-2.3,1.7-4.2,1.7c-0.7,0-1.2,0-1.5-0.1v-1.6c0.5,0.1,1,0.2,1.4,0.2c1.3,0,2.2-0.3,2.9-1c0.6-0.7,1-1.8,1-3.2H429
	c-0.3,0.5-0.7,0.8-1.2,1c-0.4,0.2-1,0.3-1.6,0.3c-1,0-1.9-0.3-2.5-1c-0.6-0.6-0.9-1.5-0.9-2.7c0-1.2,0.3-2.2,1-2.9
	c0.7-0.7,1.6-1.1,2.8-1.1c0.8,0,1.6,0.2,2.2,0.6c0.6,0.4,1.1,1,1.4,1.8C430.7,362.4,430.9,363.3,430.9,364.4z M426.8,360.8
	c-0.7,0-1.2,0.2-1.5,0.6c-0.3,0.4-0.5,1-0.5,1.8c0,0.7,0.2,1.2,0.5,1.6c0.3,0.4,0.8,0.6,1.5,0.6c0.6,0,1.2-0.2,1.6-0.6
	c0.4-0.4,0.7-0.8,0.7-1.3c0-0.5-0.1-0.9-0.3-1.3c-0.2-0.4-0.4-0.7-0.8-1C427.6,360.9,427.2,360.8,426.8,360.8z M433.7,371.2
	l4.6-10.1h-6.1v-1.7h8.1v1.3l-4.6,10.4H433.7z"/>
<path class="st2" d="M378.5,322.8c1.9,0,3.4,0.4,4.5,1.3c1.1,0.9,1.7,2,1.7,3.5c0,2.1-1.2,3.7-3.7,4.9c1.6,0.8,2.7,1.6,3.3,2.5
	c0.7,0.9,1,1.8,1,2.9c0,1.6-0.6,3-1.8,4c-1.2,1-2.9,1.5-4.9,1.5c-2.2,0-3.9-0.5-5-1.4c-1.2-0.9-1.8-2.2-1.8-4c0-1.1,0.3-2.1,0.9-3
	c0.6-0.9,1.7-1.7,3.1-2.4c-1.2-0.7-2.1-1.5-2.6-2.3c-0.5-0.8-0.8-1.7-0.8-2.7c0-1.4,0.6-2.6,1.7-3.5
	C375.1,323.3,376.6,322.8,378.5,322.8z M374.8,337.9c0,0.9,0.3,1.7,1,2.2c0.7,0.5,1.6,0.8,2.7,0.8c1.2,0,2.1-0.3,2.7-0.8
	c0.7-0.5,1-1.3,1-2.2c0-0.7-0.3-1.4-0.9-2c-0.6-0.6-1.5-1.2-2.7-1.7l-0.4-0.2c-1.2,0.5-2.1,1.1-2.6,1.8
	C375,336.4,374.8,337.1,374.8,337.9z M378.4,325.3c-0.9,0-1.6,0.2-2.2,0.7c-0.6,0.4-0.8,1.1-0.8,1.8c0,0.5,0.1,0.9,0.3,1.3
	c0.2,0.4,0.5,0.7,0.9,1c0.4,0.3,1,0.7,1.9,1.1c1.1-0.5,1.9-1,2.3-1.5c0.5-0.5,0.7-1.2,0.7-1.9c0-0.8-0.3-1.4-0.8-1.8
	C380.1,325.6,379.4,325.3,378.4,325.3z M401,333.1c0,3.5-0.6,6.1-1.7,7.7c-1.1,1.7-2.8,2.5-5.1,2.5c-2.2,0-3.9-0.9-5.1-2.6
	c-1.1-1.7-1.7-4.3-1.7-7.7c0-3.5,0.6-6.1,1.7-7.8c1.1-1.7,2.8-2.5,5.1-2.5c2.2,0,3.9,0.9,5.1,2.6C400.4,327.2,401,329.7,401,333.1z
	 M390.7,333.1c0,2.7,0.3,4.7,0.8,5.8c0.6,1.2,1.5,1.8,2.7,1.8c1.2,0,2.1-0.6,2.7-1.8c0.6-1.2,0.9-3.1,0.9-5.8c0-2.7-0.3-4.6-0.9-5.8
	c-0.6-1.2-1.5-1.8-2.7-1.8c-1.2,0-2.1,0.6-2.7,1.8C390.9,328.4,390.7,330.4,390.7,333.1z M403.7,341.4c0-0.7,0.2-1.2,0.5-1.5
	c0.3-0.4,0.8-0.5,1.5-0.5c0.7,0,1.2,0.2,1.5,0.6c0.3,0.4,0.5,0.9,0.5,1.5c0,0.6-0.2,1.2-0.5,1.5c-0.3,0.4-0.8,0.6-1.5,0.6
	c-0.7,0-1.2-0.2-1.5-0.6C403.9,342.6,403.7,342,403.7,341.4z M424.1,331.6c0,3.9-0.8,6.9-2.4,8.8c-1.6,1.9-4,2.9-7.2,2.9
	c-1.2,0-2.1-0.1-2.6-0.2v-2.7c0.8,0.2,1.6,0.3,2.4,0.3c2.2,0,3.8-0.6,4.9-1.8c1.1-1.2,1.6-3,1.8-5.5h-0.2c-0.5,0.8-1.2,1.4-2,1.8
	c-0.8,0.4-1.6,0.5-2.7,0.5c-1.8,0-3.2-0.6-4.2-1.7c-1-1.1-1.5-2.6-1.5-4.5c0-2.1,0.6-3.7,1.8-5c1.2-1.2,2.8-1.9,4.8-1.9
	c1.4,0,2.7,0.3,3.7,1c1.1,0.7,1.9,1.7,2.4,3C423.8,328.2,424.1,329.8,424.1,331.6z M417.1,325.5c-1.1,0-2,0.4-2.6,1.1
	c-0.6,0.7-0.9,1.7-0.9,3c0,1.1,0.3,2,0.8,2.7c0.6,0.6,1.4,1,2.5,1c1.1,0,2-0.3,2.7-1c0.7-0.6,1.1-1.4,1.1-2.3c0-0.8-0.2-1.6-0.5-2.3
	c-0.3-0.7-0.7-1.3-1.3-1.7C418.5,325.7,417.9,325.5,417.1,325.5z M440.6,338.7h-2.7v4.4h-3.1v-4.4h-9.1v-2.5l9.1-13.2h3.1v13h2.7
	V338.7z M434.7,336.1v-5c0-1.8,0-3.2,0.1-4.4h-0.1c-0.3,0.6-0.7,1.3-1.2,2.2l-5,7.2H434.7z"/>
<line class="st6" x1="159.9" y1="458.7" x2="159.9" y2="473.8"/>
<line class="st6" x1="274.9" y1="458.7" x2="274.9" y2="473.8"/>
<line class="st6" x1="403.1" y1="458.7" x2="403.1" y2="473.8"/>
<g>
	<path class="st7" d="M61.1,28.1c-3.4,0-6.2,2.8-6.2,6.2l-0.1,165.7c0,3.4,2.8,6.2,6.2,6.2l90.9,0c0.8,0,1.6,0.3,2.1,0.9l8.5,8.2
		c1.2,1.2,3.1,1.2,4.3,0l8.5-8.2c0.6-0.6,1.3-0.9,2.2-0.9l70.6,0c3.4,0,6.2-2.8,6.2-6.2l0.1-165.7c0-3.4-2.8-6.2-6.2-6.2L61.1,28.1z
		"/>
</g>
<path class="st1" d="M76.2,76.2l-3.4-8.8l-0.1,0c0.1,0.7,0.1,1.5,0.1,2.5l0,6.3l-1.1,0l0-10l1.7,0l3.2,8.2l0.1,0l3.2-8.2l1.7,0l0,10
	l-1.2,0l0-6.4c0-0.7,0-1.5,0.1-2.4l-0.1,0l-3.4,8.8L76.2,76.2z M85.4,76.2l-1.1,0l0-7.5l1.1,0L85.4,76.2z M84.2,66.7
	c0-0.3,0.1-0.4,0.2-0.6c0.1-0.1,0.3-0.2,0.5-0.2c0.2,0,0.3,0.1,0.5,0.2c0.1,0.1,0.2,0.3,0.2,0.6c0,0.3-0.1,0.4-0.2,0.6
	c-0.1,0.1-0.3,0.2-0.5,0.2c-0.2,0-0.4-0.1-0.5-0.2C84.2,67.2,84.2,67,84.2,66.7z M90.8,76.4c-1.1,0-1.9-0.3-2.5-1
	c-0.6-0.7-0.9-1.6-0.9-2.8c0-1.3,0.3-2.2,0.9-2.9c0.6-0.7,1.5-1,2.6-1c0.4,0,0.7,0,1.1,0.1c0.4,0.1,0.6,0.2,0.8,0.3l-0.3,1
	c-0.2-0.1-0.5-0.2-0.8-0.2c-0.3-0.1-0.6-0.1-0.8-0.1c-1.5,0-2.3,1-2.3,2.9c0,0.9,0.2,1.6,0.6,2.1c0.4,0.5,0.9,0.7,1.7,0.7
	c0.6,0,1.3-0.1,1.9-0.4l0,1C92.2,76.2,91.5,76.4,90.8,76.4z M97.9,68.6c0.3,0,0.6,0,0.9,0.1l-0.2,1.1c-0.3-0.1-0.6-0.1-0.8-0.1
	c-0.6,0-1.1,0.2-1.6,0.7c-0.4,0.5-0.6,1.1-0.6,1.8l0,4l-1.1,0l0-7.5l0.9,0l0.1,1.4l0.1,0c0.3-0.5,0.6-0.9,1-1.1
	C97,68.8,97.4,68.6,97.9,68.6z M106.6,72.5c0,1.2-0.3,2.2-0.9,2.9c-0.6,0.7-1.5,1-2.5,1c-0.7,0-1.3-0.2-1.8-0.5
	c-0.5-0.3-0.9-0.8-1.2-1.4c-0.3-0.6-0.4-1.3-0.4-2.1c0-1.2,0.3-2.2,0.9-2.8c0.6-0.7,1.5-1,2.5-1c1,0,1.9,0.3,2.5,1
	C106.3,70.4,106.6,71.3,106.6,72.5z M100.9,72.5c0,1,0.2,1.7,0.6,2.2c0.4,0.5,0.9,0.8,1.7,0.8c0.7,0,1.3-0.2,1.7-0.7
	c0.4-0.5,0.6-1.2,0.6-2.2c0-1-0.2-1.7-0.6-2.2c-0.4-0.5-0.9-0.7-1.7-0.7c-0.7,0-1.3,0.2-1.7,0.7C101.1,70.8,100.9,71.5,100.9,72.5z
	 M113.4,74.2c0,0.7-0.3,1.2-0.8,1.6c-0.5,0.4-1.2,0.6-2.2,0.6c-1,0-1.8-0.2-2.3-0.5l0-1.1c0.4,0.2,0.7,0.3,1.2,0.4
	c0.4,0.1,0.8,0.2,1.2,0.2c0.6,0,1-0.1,1.4-0.3c0.3-0.2,0.5-0.5,0.5-0.9c0-0.3-0.1-0.5-0.4-0.7c-0.3-0.2-0.7-0.5-1.5-0.7
	c-0.7-0.3-1.2-0.5-1.5-0.7c-0.3-0.2-0.5-0.4-0.7-0.7c-0.1-0.2-0.2-0.5-0.2-0.9c0-0.6,0.2-1.1,0.7-1.4c0.5-0.4,1.2-0.5,2-0.5
	c0.8,0,1.6,0.2,2.4,0.5l-0.4,0.9c-0.7-0.3-1.4-0.5-2-0.5c-0.5,0-0.9,0.1-1.2,0.3c-0.3,0.2-0.4,0.4-0.4,0.7c0,0.2,0.1,0.4,0.2,0.5
	c0.1,0.1,0.3,0.3,0.5,0.4c0.2,0.1,0.7,0.3,1.3,0.6c0.9,0.3,1.5,0.6,1.8,1C113.3,73.3,113.4,73.7,113.4,74.2z M121.7,72.5
	c0,1.2-0.3,2.2-0.9,2.9c-0.6,0.7-1.5,1-2.5,1c-0.7,0-1.3-0.2-1.8-0.5c-0.5-0.3-0.9-0.8-1.2-1.4c-0.3-0.6-0.4-1.3-0.4-2.1
	c0-1.2,0.3-2.2,0.9-2.8c0.6-0.7,1.5-1,2.5-1c1,0,1.9,0.3,2.5,1C121.4,70.4,121.7,71.3,121.7,72.5z M116,72.5c0,1,0.2,1.7,0.6,2.2
	c0.4,0.5,0.9,0.8,1.7,0.8c0.7,0,1.3-0.2,1.7-0.7c0.4-0.5,0.6-1.2,0.6-2.2c0-1-0.2-1.7-0.6-2.2c-0.4-0.5-0.9-0.7-1.7-0.7
	c-0.7,0-1.3,0.2-1.7,0.7C116.2,70.8,116,71.5,116,72.5z M127.1,69.7l-1.9,0l0,6.6l-1.1,0l0-6.6l-1.3,0l0-0.5l1.3-0.4l0-0.4
	c0-1.8,0.8-2.8,2.4-2.8c0.4,0,0.9,0.1,1.4,0.2l-0.3,0.9c-0.4-0.1-0.8-0.2-1.1-0.2c-0.4,0-0.7,0.1-0.9,0.4c-0.2,0.3-0.3,0.7-0.3,1.4
	l0,0.5l1.9,0L127.1,69.7z M130.9,75.5c0.2,0,0.4,0,0.6,0c0.2,0,0.3-0.1,0.4-0.1l0,0.9c-0.1,0.1-0.3,0.1-0.5,0.1
	c-0.2,0-0.4,0.1-0.6,0.1c-1.4,0-2.2-0.8-2.2-2.3l0-4.5l-1.1,0l0-0.5l1.1-0.5L129,67l0.7,0l0,1.7l2.2,0l0,0.9l-2.2,0l0,4.4
	c0,0.5,0.1,0.8,0.3,1C130.2,75.3,130.5,75.5,130.9,75.5z M141.5,67.2c-1.1,0-2,0.4-2.6,1.1c-0.6,0.7-1,1.7-0.9,3
	c0,1.3,0.3,2.3,0.9,3c0.6,0.7,1.5,1.1,2.6,1.1c0.7,0,1.5-0.1,2.4-0.4l0,1c-0.7,0.3-1.5,0.4-2.6,0.4c-1.5,0-2.6-0.4-3.4-1.3
	c-0.8-0.9-1.2-2.2-1.2-3.8c0-1,0.2-1.9,0.6-2.7c0.4-0.8,0.9-1.4,1.7-1.8c0.7-0.4,1.6-0.6,2.6-0.6c1,0,2,0.2,2.7,0.6l-0.5,1
	C143,67.4,142.3,67.2,141.5,67.2z M152.3,72.5c0,1.2-0.3,2.2-0.9,2.9c-0.6,0.7-1.5,1-2.5,1c-0.7,0-1.3-0.2-1.8-0.5
	c-0.5-0.3-0.9-0.8-1.2-1.4c-0.3-0.6-0.4-1.3-0.4-2.1c0-1.2,0.3-2.2,0.9-2.8c0.6-0.7,1.5-1,2.5-1c1,0,1.9,0.3,2.5,1
	C152,70.4,152.3,71.3,152.3,72.5z M146.6,72.5c0,1,0.2,1.7,0.6,2.2c0.4,0.5,0.9,0.8,1.7,0.8c0.7,0,1.3-0.2,1.7-0.7
	c0.4-0.5,0.6-1.2,0.6-2.2c0-1-0.2-1.7-0.6-2.2c-0.4-0.5-0.9-0.7-1.7-0.7c-0.7,0-1.3,0.2-1.7,0.7C146.8,70.8,146.6,71.6,146.6,72.5z
	 M157.7,68.7c0.3,0,0.6,0,0.9,0.1l-0.2,1.1c-0.3-0.1-0.6-0.1-0.8-0.1c-0.6,0-1.1,0.2-1.6,0.7c-0.4,0.5-0.6,1.1-0.6,1.8l0,4l-1.1,0
	l0-7.5l0.9,0l0.1,1.4l0.1,0c0.3-0.5,0.6-0.9,1-1.1C156.8,68.8,157.3,68.7,157.7,68.7z M163.5,76.4c-0.5,0-0.9-0.1-1.3-0.3
	c-0.4-0.2-0.7-0.5-1-0.8l-0.1,0c0.1,0.4,0.1,0.9,0.1,1.2l0,3.1l-1.1,0l0-10.8l0.9,0l0.2,1l0.1,0c0.3-0.4,0.6-0.7,1-0.9
	c0.4-0.2,0.8-0.3,1.3-0.3c1,0,1.8,0.3,2.3,1c0.5,0.7,0.8,1.6,0.8,2.9c0,1.2-0.3,2.2-0.8,2.9C165.2,76.1,164.5,76.4,163.5,76.4z
	 M163.4,69.6c-0.8,0-1.3,0.2-1.7,0.6c-0.3,0.4-0.5,1.1-0.5,2l0,0.3c0,1.1,0.2,1.8,0.5,2.3c0.4,0.5,0.9,0.7,1.7,0.7
	c0.6,0,1.2-0.3,1.5-0.8c0.4-0.5,0.6-1.2,0.6-2.2c0-0.9-0.2-1.6-0.6-2.1C164.5,69.9,164,69.6,163.4,69.6z M175.1,72.5
	c0,1.2-0.3,2.2-0.9,2.9c-0.6,0.7-1.5,1-2.5,1c-0.7,0-1.3-0.2-1.8-0.5c-0.5-0.3-0.9-0.8-1.2-1.4c-0.3-0.6-0.4-1.3-0.4-2.1
	c0-1.2,0.3-2.2,0.9-2.8c0.6-0.7,1.5-1,2.5-1c1,0,1.9,0.3,2.5,1C174.8,70.4,175.1,71.3,175.1,72.5z M169.4,72.5c0,1,0.2,1.7,0.6,2.2
	s0.9,0.8,1.7,0.8c0.7,0,1.3-0.2,1.7-0.7c0.4-0.5,0.6-1.2,0.6-2.2c0-1-0.2-1.7-0.6-2.2c-0.4-0.5-0.9-0.7-1.7-0.7
	c-0.7,0-1.3,0.2-1.7,0.7C169.6,70.8,169.4,71.6,169.4,72.5z M180.5,68.7c0.3,0,0.6,0,0.9,0.1l-0.2,1.1c-0.3-0.1-0.6-0.1-0.8-0.1
	c-0.6,0-1.1,0.2-1.6,0.7c-0.4,0.5-0.6,1.1-0.6,1.8l0,4l-1.1,0l0-7.5l0.9,0l0.1,1.4l0.1,0c0.3-0.5,0.6-0.9,1-1.1
	C179.6,68.8,180,68.7,180.5,68.7z M187.4,76.3l-0.2-1.1l-0.1,0c-0.4,0.5-0.7,0.8-1.1,1c-0.4,0.2-0.8,0.2-1.4,0.2
	c-0.7,0-1.3-0.2-1.7-0.6c-0.4-0.4-0.6-0.9-0.6-1.6c0-1.5,1.2-2.3,3.6-2.4l1.3,0l0-0.5c0-0.6-0.1-1-0.4-1.3c-0.2-0.3-0.7-0.4-1.2-0.4
	c-0.6,0-1.3,0.2-2.1,0.6l-0.3-0.9c0.4-0.2,0.8-0.4,1.2-0.5c0.4-0.1,0.9-0.2,1.3-0.2c0.9,0,1.6,0.2,2,0.6c0.4,0.4,0.6,1,0.6,1.9
	l0,5.1L187.4,76.3z M184.8,75.5c0.7,0,1.3-0.2,1.7-0.6c0.4-0.4,0.6-0.9,0.6-1.6l0-0.7l-1.1,0c-0.9,0-1.6,0.2-2,0.4
	c-0.4,0.2-0.6,0.6-0.6,1.2c0,0.4,0.1,0.7,0.4,0.9C184,75.4,184.4,75.5,184.8,75.5z M193,75.5c0.2,0,0.4,0,0.6,0
	c0.2,0,0.3-0.1,0.4-0.1l0,0.9c-0.1,0.1-0.3,0.1-0.5,0.1c-0.2,0-0.5,0.1-0.6,0.1c-1.4,0-2.2-0.8-2.2-2.3l0-4.5l-1.1,0l0-0.5l1.1-0.5
	l0.5-1.6l0.7,0l0,1.7l2.2,0l0,0.9l-2.2,0l0,4.4c0,0.5,0.1,0.8,0.3,1C192.3,75.4,192.6,75.5,193,75.5z M196.6,76.3l-1.1,0l0-7.5
	l1.1,0L196.6,76.3z M195.4,66.8c0-0.3,0.1-0.4,0.2-0.6c0.1-0.1,0.3-0.2,0.5-0.2c0.2,0,0.3,0.1,0.5,0.2c0.1,0.1,0.2,0.3,0.2,0.6
	c0,0.3-0.1,0.4-0.2,0.6c-0.1,0.1-0.3,0.2-0.5,0.2c-0.2,0-0.4-0.1-0.5-0.2C195.5,67.2,195.4,67,195.4,66.8z M205.5,72.5
	c0,1.2-0.3,2.2-0.9,2.9c-0.6,0.7-1.5,1-2.5,1c-0.7,0-1.3-0.2-1.8-0.5c-0.5-0.3-0.9-0.8-1.2-1.4c-0.3-0.6-0.4-1.3-0.4-2.1
	c0-1.2,0.3-2.2,0.9-2.8c0.6-0.7,1.5-1,2.5-1c1,0,1.9,0.3,2.5,1C205.2,70.4,205.5,71.4,205.5,72.5z M199.8,72.5c0,1,0.2,1.7,0.6,2.2
	c0.4,0.5,0.9,0.8,1.7,0.8c0.7,0,1.3-0.2,1.7-0.7c0.4-0.5,0.6-1.2,0.6-2.2c0-1-0.2-1.7-0.6-2.2c-0.4-0.5-0.9-0.7-1.7-0.7
	c-0.7,0-1.3,0.2-1.7,0.7C200,70.9,199.8,71.6,199.8,72.5z M212.6,76.3l0-4.8c0-0.6-0.1-1.1-0.4-1.4c-0.3-0.3-0.7-0.5-1.3-0.5
	c-0.8,0-1.4,0.2-1.7,0.6c-0.4,0.4-0.5,1.1-0.5,2.1l0,3.9l-1.1,0l0-7.5l0.9,0l0.2,1l0.1,0c0.2-0.4,0.6-0.7,1-0.9
	c0.4-0.2,0.9-0.3,1.4-0.3c0.9,0,1.6,0.2,2,0.7c0.5,0.4,0.7,1.1,0.7,2.1l0,4.9L212.6,76.3z"/>
<path class="st2" d="M78.5,56.9l-4.1-11.9l-0.1,0c0.1,1.8,0.2,3.4,0.2,5l0,6.9l-2.1,0l0-14.3l3.3,0l4,11.3l0.1,0l4.1-11.3l3.3,0
	l0,14.3l-2.2,0l0-7.1c0-0.7,0-1.6,0-2.8c0-1.1,0.1-1.8,0.1-2.1l-0.1,0l-4.3,11.9L78.5,56.9z M98.6,53c0,1.3-0.5,2.3-1.4,3
	c-0.9,0.7-2.2,1.1-3.8,1.1c-1.6,0-2.9-0.3-4-0.8l0-2.2c0.7,0.3,1.3,0.5,2.1,0.7c0.7,0.2,1.4,0.3,2,0.3c0.9,0,1.6-0.2,2-0.5
	c0.4-0.4,0.7-0.8,0.7-1.4c0-0.5-0.2-1-0.6-1.4c-0.4-0.4-1.2-0.8-2.5-1.3c-1.3-0.5-2.2-1.1-2.7-1.8c-0.5-0.7-0.8-1.5-0.8-2.4
	c0-1.2,0.4-2.1,1.3-2.8c0.8-0.7,2-1,3.4-1c1.4,0,2.7,0.3,4.1,0.9l-0.7,1.9c-1.3-0.5-2.4-0.8-3.4-0.8c-0.8,0-1.3,0.2-1.7,0.5
	c-0.4,0.3-0.6,0.8-0.6,1.3c0,0.4,0.1,0.7,0.2,1c0.2,0.3,0.4,0.5,0.8,0.7c0.4,0.2,1,0.5,1.9,0.9c1,0.4,1.8,0.8,2.3,1.2
	c0.5,0.4,0.8,0.8,1.1,1.3C98.5,51.8,98.6,52.3,98.6,53z M103.2,56.9l-2.3,0l0-14.3l8,0l0,2l-5.7,0l0,4.5l5.4,0l0,2l-5.4,0
	L103.2,56.9z M116.1,56.9l-2.3,0l0-12.3l-4.2,0l0-2l10.7,0l0,2l-4.2,0L116.1,56.9z"/>
<rect x="211.3" y="112.7" class="st0" width="23.4" height="17"/>
<rect x="210.2" y="136.1" class="st8" width="24.4" height="13.8"/>
<rect x="210.2" y="159.4" class="st8" width="24.4" height="13.8"/>
<path class="st1" d="M225.3,142.6l-0.8,0l0-3.2c0-0.4,0-0.7,0-0.9c-0.1,0.1-0.1,0.1-0.2,0.2c-0.1,0.1-0.3,0.3-0.8,0.6l-0.4-0.5
	l1.5-1.1l0.7,0L225.3,142.6z M230.3,140.1c0,0.9-0.1,1.5-0.4,1.9c-0.3,0.4-0.7,0.6-1.3,0.6c-0.6,0-1-0.2-1.3-0.7
	c-0.3-0.4-0.4-1.1-0.4-1.9c0-0.9,0.1-1.5,0.4-1.9c0.3-0.4,0.7-0.6,1.3-0.6c0.6,0,1,0.2,1.3,0.7C230.2,138.6,230.3,139.2,230.3,140.1
	z M227.8,140.1c0,0.7,0.1,1.2,0.2,1.5c0.1,0.3,0.4,0.4,0.7,0.4c0.3,0,0.5-0.1,0.7-0.4c0.1-0.3,0.2-0.8,0.2-1.4
	c0-0.7-0.1-1.1-0.2-1.4c-0.1-0.3-0.4-0.4-0.7-0.4c-0.3,0-0.5,0.1-0.7,0.4C227.8,138.9,227.8,139.4,227.8,140.1z M234.3,140.1
	c0,0.9-0.1,1.5-0.4,1.9c-0.3,0.4-0.7,0.6-1.3,0.6c-0.6,0-1-0.2-1.3-0.7c-0.3-0.4-0.4-1.1-0.4-1.9c0-0.9,0.1-1.5,0.4-1.9
	c0.3-0.4,0.7-0.6,1.3-0.6c0.6,0,1,0.2,1.3,0.7C234.2,138.6,234.3,139.2,234.3,140.1z M231.8,140.1c0,0.7,0.1,1.2,0.2,1.5
	c0.1,0.3,0.4,0.4,0.7,0.4c0.3,0,0.5-0.1,0.7-0.4c0.1-0.3,0.2-0.8,0.2-1.4c0-0.7-0.1-1.1-0.2-1.4c-0.1-0.3-0.4-0.4-0.7-0.4
	c-0.3,0-0.5,0.1-0.7,0.4C231.8,138.9,231.8,139.4,231.8,140.1z"/>
<path class="st1" d="M227.5,167l2-4.3l-2.6,0l0-0.7l3.4,0l0,0.6l-2,4.4L227.5,167z M232.6,163.9c0.5,0,0.9,0.1,1.2,0.4
	s0.4,0.6,0.4,1.1c0,0.5-0.2,0.9-0.5,1.2c-0.3,0.3-0.8,0.4-1.4,0.4c-0.6,0-1-0.1-1.3-0.3l0-0.7c0.2,0.1,0.4,0.2,0.6,0.2
	c0.2,0.1,0.5,0.1,0.7,0.1c0.4,0,0.6-0.1,0.8-0.2c0.2-0.2,0.3-0.4,0.3-0.7c0-0.6-0.4-0.9-1.1-0.9c-0.1,0-0.2,0-0.4,0
	c-0.2,0-0.3,0-0.4,0.1l-0.4-0.2l0.2-2.4l2.6,0l0,0.7l-1.9,0l-0.1,1.2c0.1,0,0.2,0,0.3,0C232.3,163.9,232.5,163.9,232.6,163.9z"/>
<g class="st9">
	<path class="st10" d="M24.8,209c2-3.1,3.6-5.9,6-8.8c0.7-0.8,0.7,1.1,1,1.5c0,0,0.3-2.1,0.7-0.3c0.1,0.3,3.5,5.2,4.5,2.4
		c0.3-0.8,0.4-5,0.9-2.8c0.5,2.1,1,0.2,1.8,0.8c0.8,0.5,1.8-6.2,1.9-6.9c0.7-4.5,0.3-3,1.9-0.1c0.5,0.9,2.1,1.3,2.1,1.5
		c0.1,0.7,0.4,6.1,1,5.4c0.8-0.9,1.8-1.8,2.2-2.9c0.7-1.8,0.6-7.4,1.2-5.6c0.3,0.9,1.3,6.3,2.8,4.5c2.4-3,1.1-0.5,4,0.6
		c2,0.8,3.1-3.8,4.2-3.2c1.3,0.7,0.9,6.9,1.4,0.7c0.5-6.1-0.1-6.9,1-13.3c0.4-2.5,1.1-0.6,1.6,0.4c0.7,1.5,4.1-5.8,4.4-6.5
		c1.6-3.7,0.9-0.1,2.1,2.2c1.4,2.9,5.9-6.2,6.6-7.3c2.7-4.5,1.2,5.1,1.2,6.7c0.1,1.6-0.1,11.7,2.7,6.3c0.6-1.1,1.5,5.1,1.7,5.9
		c1.3,5.1,2.2-1.8,2.9-3.3c1.2-2.6,1.8,5.4,2.9,8c1.3,3.1,3.2-5,3.6-6.3c0.6-2.2-0.1,1.8,0.6-0.2c0.7-2,1-11.2,2.8-12
		c0.8-0.3,0.8,4.3,1.4,4.3c1.4,0.1,1.2-5.2,2.3-2.4c0.3,0.8,2.5,7.6,3.6,7.1c1-0.4,5-7.9,5.3-6.9c0.3,0.8,1.2,7.8,2.1,7
		c1.7-1.7,3.4-8.4,6.2-4.9c1.4,1.7,1.8,3.6,4,2.6c0.9-0.4,2,4.6,2.6,5.3c1.2,1.4,3.6-3.3,4.1-4c1.6-2.6,0.3,1.2,1.5-0.2
		c2.2-2.5,2.6-6.2,4.7-8.8c1.4-1.7,0.4,3.7,1.5,3.4c1.7-0.4,3.8-4.6,5.6-4.2c1.2,0.3,0.1,4.1,1.9,4.2c1.5,0.1,2.6-2.6,4-0.6
		c1.6,2.2,0.9,2.6,3.1,0.5c1-0.9,5.5-5.2,7-3.9c1.3,1,1.1,6.4,3.6,4c2-1.9,4.5-4.6,5.6-7.1c0.1-0.3-0.3,0.6-0.4,0.9
		c-0.2,0.8,0.8-0.3,0.9-0.4c1.4-1.1,6.3-6.1,8.2-5.3c2.4,1.1,0.1,3.1,4,0c2.6-2.1,3.9-13.6,4.9-9.5c1.1,4.6,3.8-13.2,6.5-15.1
		c2.5-1.8,5.3,35.3,6.5,38.2c1.8,4.1,1.7-11.9,3.9-14.7c4.7,6.5,4.6-5.9,4.7-5.4c0.7,1.9,3.7,12.8,5,14.3c3.2,3.6,3.4-8.2,7.5-8.1
		c1.7,0.1,0.9,1.7,3.2,0c0.6-0.4,1-1,1.6-1"/>
</g>
<path class="st11" d="M10,172.2c2-3.1,3.6-5.9,6-8.8c0.7-0.8,0.7,1.1,1,1.5c0,0,0.3-2.1,0.7-0.3c0.1,0.3,3.5,5.2,4.5,2.4
	c0.3-0.8,0.4-5,0.9-2.8c0.5,2.1,1,0.2,1.8,0.8c0.8,0.5,1.8-6.2,1.9-6.9c0.7-4.5,0.3-3,1.9-0.1c0.5,0.9,2.1,1.3,2.1,1.5
	c0.1,0.7,0.4,6.1,1,5.4c0.8-0.9,1.8-1.8,2.2-2.9c0.7-1.8,0.6-7.4,1.2-5.6c0.3,0.9,1.3,6.3,2.8,4.5c2.4-3,1.1-0.5,4,0.6
	c2,0.8,3.1-3.8,4.2-3.2c1.3,0.7,0.9,6.9,1.4,0.7c0.5-6.1-0.1-6.9,1-13.3c0.4-2.5,1.1-0.6,1.6,0.4c0.7,1.5,4.1-5.8,4.4-6.5
	c1.6-3.7,0.9-0.1,2.1,2.2c1.4,2.9,5.9-6.2,6.6-7.3c2.7-4.5,1.2,5.1,1.2,6.7c0.1,1.6-0.1,11.7,2.7,6.3c0.6-1.1,1.5,5.1,1.7,5.9
	c1.3,5.1,2.2-1.8,2.9-3.3c1.2-2.6,1.8,5.4,2.9,8c1.3,3.1,3.2-5,3.6-6.3c0.6-2.2-0.1,1.8,0.6-0.2c0.7-2,1-11.2,2.8-12
	c0.8-0.3,0.8,4.3,1.4,4.3c1.4,0.1,1.2-5.2,2.3-2.4c0.3,0.8,2.5,7.6,3.6,7.1c1-0.4,5-7.9,5.3-6.9c0.3,0.8,1.2,7.8,2.1,7
	c1.7-1.7,3.4-8.4,6.2-4.9c1.4,1.7,1.8,3.6,4,2.6c0.9-0.4,2,4.6,2.6,5.3c1.2,1.4,3.6-3.3,4.1-4c1.6-2.6,0.3,1.2,1.5-0.2
	c2.2-2.5,2.6-6.2,4.7-8.8c1.4-1.7,0.4,3.7,1.5,3.4c1.7-0.4,3.8-4.6,5.6-4.2c1.2,0.3,0.1,4.1,1.9,4.2c1.5,0.1,2.6-2.6,4-0.6
	c1.6,2.2,0.9,2.6,3.1,0.5c1-0.9,5.5-5.2,7-3.9c1.3,1,1.1,6.4,3.6,4c2-1.9,4.5-4.6,5.6-7.1c0.1-0.3-0.3,0.6-0.4,0.9
	c-0.2,0.8,0.8-0.3,0.9-0.4c1.4-1.1,6.3-6.1,8.2-5.3c2.4,1.1,0.1,3.1,4,0c2.6-2.1,3.9-13.6,4.9-9.5c1.1,4.6,3.8-13.2,6.5-15.1
	c2.5-1.8,5.3,35.3,6.5,38.2c1.8,4.1,1.7-11.9,3.9-14.7c4.7,6.5,4.6-5.9,4.7-5.4c0.7,1.9,3.7,12.8,5,14.3c3.2,3.6,3.4-8.2,7.5-8.1
	c1.7,0.1,0.9,1.7,3.2,0c0.6-0.4,1-1,1.6-1"/>
<path class="st11" d="M10,172.2c2-3.1,3.6-5.9,6-8.8c0.7-0.8,0.7,1.1,1,1.5c0,0,0.3-2.1,0.7-0.3c0.1,0.3,3.5,5.2,4.5,2.4
	c0.3-0.8,0.4-5,0.9-2.8c0.5,2.1,1,0.2,1.8,0.8c0.8,0.5,1.8-6.2,1.9-6.9c0.7-4.5,0.3-3,1.9-0.1c0.5,0.9,2.1,1.3,2.1,1.5
	c0.1,0.7,0.4,6.1,1,5.4c0.8-0.9,1.8-1.8,2.2-2.9c0.7-1.8,0.6-7.4,1.2-5.6c0.3,0.9,1.3,6.3,2.8,4.5c2.4-3,1.1-0.5,4,0.6
	c2,0.8,3.1-3.8,4.2-3.2c1.3,0.7,0.9,6.9,1.4,0.7c0.5-6.1-0.1-6.9,1-13.3c0.4-2.5,1.1-0.6,1.6,0.4c0.7,1.5,4.1-5.8,4.4-6.5
	c1.6-3.7,0.9-0.1,2.1,2.2c1.4,2.9,5.9-6.2,6.6-7.3c2.7-4.5,1.2,5.1,1.2,6.7c0.1,1.6-0.1,11.7,2.7,6.3c0.6-1.1,1.5,5.1,1.7,5.9
	c1.3,5.1,2.2-1.8,2.9-3.3c1.2-2.6,1.8,5.4,2.9,8c1.3,3.1,3.2-5,3.6-6.3c0.6-2.2-0.1,1.8,0.6-0.2c0.7-2,1-11.2,2.8-12
	c0.8-0.3,0.8,4.3,1.4,4.3c1.4,0.1,1.2-5.2,2.3-2.4c0.3,0.8,2.5,7.6,3.6,7.1c1-0.4,5-7.9,5.3-6.9c0.3,0.8,1.2,7.8,2.1,7
	c1.7-1.7,3.4-8.4,6.2-4.9c1.4,1.7,1.8,3.6,4,2.6c0.9-0.4,2,4.6,2.6,5.3c1.2,1.4,3.6-3.3,4.1-4c1.6-2.6,0.3,1.2,1.5-0.2
	c2.2-2.5,2.6-6.2,4.7-8.8c1.4-1.7,0.4,3.7,1.5,3.4c1.7-0.4,3.8-4.6,5.6-4.2c1.2,0.3,0.1,4.1,1.9,4.2c1.5,0.1,2.6-2.6,4-0.6
	c1.6,2.2,0.9,2.6,3.1,0.5c1-0.9,5.5-5.2,7-3.9c1.3,1,1.1,6.4,3.6,4c2-1.9,4.5-4.6,5.6-7.1c0.1-0.3-0.3,0.6-0.4,0.9
	c-0.2,0.8,0.8-0.3,0.9-0.4c1.4-1.1,6.3-6.1,8.2-5.3c2.4,1.1,0.1,3.1,4,0c2.6-2.1,3.9-13.6,4.9-9.5c1.1,4.6,3.8-13.2,6.5-15.1
	c2.5-1.8,5.3,35.3,6.5,38.2c1.8,4.1,1.7-11.9,3.9-14.7c4.7,6.5,4.6-5.9,4.7-5.4c0.7,1.9,3.7,12.8,5,14.3c3.2,3.6,3.4-8.2,7.5-8.1
	c1.7,0.1,0.9,1.7,3.2,0c0.6-0.4,1-1,1.6-1"/>
<path class="st12" d="M10,172.2c2-3.1,3.6-5.9,6-8.8c0.7-0.8,0.7,1.1,1,1.5c0,0,0.3-2.1,0.7-0.3c0.1,0.3,3.5,5.2,4.5,2.4
	c0.3-0.8,0.4-5,0.9-2.8c0.5,2.1,1,0.2,1.8,0.8c0.8,0.5,1.8-6.2,1.9-6.9c0.7-4.5,0.3-3,1.9-0.1c0.5,0.9,2.1,1.3,2.1,1.5
	c0.1,0.7,0.4,6.1,1,5.4c0.8-0.9,1.8-1.8,2.2-2.9c0.7-1.8,0.6-7.4,1.2-5.6c0.3,0.9,1.3,6.3,2.8,4.5c2.4-3,1.1-0.5,4,0.6
	c2,0.8,3.1-3.8,4.2-3.2c1.3,0.7,0.9,6.9,1.4,0.7c0.5-6.1-0.1-6.9,1-13.3c0.4-2.5,1.1-0.6,1.6,0.4c0.7,1.5,4.1-5.8,4.4-6.5
	c1.6-3.7,0.9-0.1,2.1,2.2c1.4,2.9,5.9-6.2,6.6-7.3c2.7-4.5,1.2,5.1,1.2,6.7c0.1,1.6-0.1,11.7,2.7,6.3c0.6-1.1,1.5,5.1,1.7,5.9
	c1.3,5.1,2.2-1.8,2.9-3.3c1.2-2.6,1.8,5.4,2.9,8c1.3,3.1,3.2-5,3.6-6.3c0.6-2.2-0.1,1.8,0.6-0.2c0.7-2,1-11.2,2.8-12
	c0.8-0.3,0.8,4.3,1.4,4.3c1.4,0.1,1.2-5.2,2.3-2.4c0.3,0.8,2.5,7.6,3.6,7.1c1-0.4,5-7.9,5.3-6.9c0.3,0.8,1.2,7.8,2.1,7
	c1.7-1.7,3.4-8.4,6.2-4.9c1.4,1.7,1.8,3.6,4,2.6c0.9-0.4,2,4.6,2.6,5.3c1.2,1.4,3.6-3.3,4.1-4c1.6-2.6,0.3,1.2,1.5-0.2
	c2.2-2.5,2.6-6.2,4.7-8.8c1.4-1.7,0.4,3.7,1.5,3.4c1.7-0.4,3.8-4.6,5.6-4.2c1.2,0.3,0.1,4.1,1.9,4.2c1.5,0.1,2.6-2.6,4-0.6
	c1.6,2.2,0.9,2.6,3.1,0.5c1-0.9,5.5-5.2,7-3.9c1.3,1,1.1,6.4,3.6,4c2-1.9,4.5-4.6,5.6-7.1c0.1-0.3-0.3,0.6-0.4,0.9
	c-0.2,0.8,0.8-0.3,0.9-0.4c1.4-1.1,6.3-6.1,8.2-5.3c2.4,1.1,0.1,3.1,4,0c2.6-2.1,3.9-13.6,4.9-9.5c1.1,4.6,3.8-13.2,6.5-15.1
	c2.5-1.8,5.3,35.3,6.5,38.2c1.8,4.1,1.7-11.9,3.9-14.7c4.7,6.5,4.6-5.9,4.7-5.4c0.7,1.9,3.7,12.8,5,14.3c3.2,3.6,3.4-8.2,7.5-8.1
	c1.7,0.1,0.9,1.7,3.2,0c0.6-0.4,1-1,1.6-1"/>
<linearGradient id="SVGID_3_" gradientUnits="userSpaceOnUse" x1="496.5691" y1="-1789.0911" x2="547.0914" y2="-1907.3226" gradientTransform="matrix(0.9194 0.3934 0.3934 -0.9194 356.4329 -1753.3953)">
	<stop  offset="0" style="stop-color:#5AC5A1"/>
	<stop  offset="0.5365" style="stop-color:#5AC5A1;stop-opacity:0"/>
</linearGradient>
<path class="st13" d="M9.9,153.4c2-3.1,3.6-5.9,6-8.8c0.7-0.8,0.7,1.1,1,1.5c0,0,0.3-2.1,0.7-0.3c0.1,0.3,3.5,5.2,4.5,2.4
	c0.3-0.8,0.4-5,0.9-2.8c0.5,2.1,1,0.2,1.8,0.8c0.8,0.5,1.8-6,1.9-6.8l0,0c0.7-4.5,0.3-3,1.9-0.1c0.5,0.9,2.1,1.3,2.1,1.5
	c0.1,0.7,0.4,6.1,1,5.4c0.8-0.9,1.8-1.8,2.2-2.9c0.7-1.8,0.6-7.4,1.2-5.6c0.3,0.9,1.4,6.3,2.8,4.5c2.4-3,1.1-0.5,4,0.6
	c2,0.8,3.1-3.8,4.2-3.2c1.3,0.7,0.9,6.9,1.4,0.7c0.5-6.1-0.1-6.9,1-13.3c0.4-2.5,1.1-0.6,1.6,0.4c0.7,1.5,4.1-5.8,4.4-6.5
	c1.6-3.7,0.9-0.1,2.1,2.2c1.4,2.9,5.9-6.2,6.6-7.3c2.7-4.5,1.2,5.1,1.2,6.7c0.1,1.6-0.1,11.7,2.7,6.3c0.6-1.1,1.5,5.1,1.7,5.9
	c1.3,5.1,2.2-1.8,2.9-3.3c1.2-2.6,1.8,5.4,2.9,8c1.3,3.1,3.2-5,3.6-6.3c0.6-2.2-0.1,1.8,0.6-0.2c0.7-2,1-11.2,2.8-12
	c0.8-0.3,0.8,4.3,1.4,4.3c1.4,0.1,1.2-5.2,2.3-2.4c0.3,0.8,2.5,7.6,3.6,7.1c1-0.4,5-7.9,5.3-6.8c0.3,0.8,1.2,7.8,2.1,7
	c1.7-1.7,3.4-8.4,6.2-4.9c1.4,1.7,1.8,3.6,4,2.6c0.9-0.4,2,4.6,2.6,5.3c1.2,1.4,3.6-3.3,4.1-4c1.6-2.6,0.3,1.2,1.5-0.2
	c2.2-2.5,2.6-6.2,4.7-8.8c1.4-1.7,0.4,3.7,1.5,3.4c1.7-0.4,3.8-4.6,5.6-4.2c1.2,0.3,0.1,4.1,1.9,4.2c1.5,0.1,2.6-2.6,4-0.6
	c1.6,2.2,0.9,2.6,3.1,0.5l0.1-0.1c1.1-1,5.4-5.1,7-3.9c1.3,1,1.1,6.4,3.6,4c1.9-1.8,4.3-4.3,5.5-6.7c0.1-0.3,0.2-0.5,0.1-0.3
	c0,0.1-0.1,0.2-0.1,0.3c-0.1,0.2-0.2,0.4-0.2,0.6c-0.2,0.8,0.8-0.3,0.9-0.4c1.4-1.1,6.3-6.1,8.2-5.3c2.4,1.1,0.1,3.1,4,0
	c2.6-2.1,3.9-13.6,4.9-9.5c1.1,4.6,3.8-13.2,6.5-15.1c2.5-1.8,5.3,35.3,6.5,38.2c1.8,4.1,1.7-11.9,3.9-14.7c4.7,6.5,4.6-5.9,4.7-5.4
	c0.7,1.9,3.7,12.8,5,14.3c3.2,3.6,3.4-8.2,7.5-8.1c1.7,0.1,0.9,1.7,3.2,0c0.6-0.4,1-1,1.6-1l0,79.9L9.9,190L9.9,153.4z"/>
<path class="st1" d="M225.3,120.3l-0.8,0l0-3.2c0-0.4,0-0.7,0-0.9c-0.1,0.1-0.1,0.1-0.2,0.2c-0.1,0.1-0.3,0.3-0.8,0.6l-0.4-0.5
	l1.5-1.1l0.7,0L225.3,120.3z M230.3,120.3l-3.4,0l0-0.6l1.3-1.3c0.4-0.4,0.6-0.7,0.8-0.8c0.1-0.2,0.2-0.3,0.3-0.5
	c0.1-0.1,0.1-0.3,0.1-0.5c0-0.2-0.1-0.4-0.2-0.5c-0.1-0.1-0.3-0.2-0.6-0.2c-0.2,0-0.4,0-0.6,0.1c-0.2,0.1-0.4,0.2-0.6,0.4l-0.4-0.5
	c0.3-0.2,0.5-0.4,0.8-0.5c0.3-0.1,0.5-0.1,0.8-0.1c0.5,0,0.8,0.1,1.1,0.4c0.3,0.2,0.4,0.6,0.4,1c0,0.2,0,0.4-0.1,0.6
	c-0.1,0.2-0.2,0.4-0.4,0.6c-0.2,0.2-0.4,0.5-0.8,0.9l-0.9,0.8l0,0l2.4,0L230.3,120.3z M232.6,117.2c0.5,0,0.9,0.1,1.2,0.4
	c0.3,0.3,0.4,0.6,0.4,1.1c0,0.5-0.2,0.9-0.5,1.2c-0.3,0.3-0.8,0.4-1.4,0.4c-0.6,0-1-0.1-1.3-0.3l0-0.7c0.2,0.1,0.4,0.2,0.6,0.2
	c0.2,0.1,0.5,0.1,0.7,0.1c0.4,0,0.6-0.1,0.8-0.2c0.2-0.2,0.3-0.4,0.3-0.7c0-0.6-0.4-0.9-1.1-0.9c-0.1,0-0.2,0-0.4,0
	c-0.2,0-0.3,0-0.4,0.1l-0.4-0.2l0.2-2.4l2.6,0l0,0.7l-1.9,0l-0.1,1.2c0.1,0,0.2,0,0.3,0C232.3,117.2,232.5,117.2,232.6,117.2z"/>
<g>
</g>
<path class="st0" d="M279.7,2h370.4c2.2,0,4,1.8,4,4v202c0,2.2-1.8,4-4,4H279.7c-2.2,0-4-1.8-4-4V6C275.7,3.8,277.5,2,279.7,2z"/>
<path class="st1" d="M307.8,60.6l-1.6-4.1h-5.1l-1.6,4.1H298l5.1-12.8h1.3l5,12.8H307.8z M305.8,55.2l-1.5-4
	c-0.2-0.5-0.4-1.1-0.6-1.8c-0.1,0.6-0.3,1.2-0.6,1.8l-1.5,4H305.8z M315.3,60.8c-0.6,0-1.2-0.1-1.7-0.3c-0.5-0.2-0.9-0.6-1.3-1.1
	h-0.1c0.1,0.6,0.1,1.1,0.1,1.6v3.9h-1.5V51.1h1.2l0.2,1.3h0.1c0.4-0.5,0.8-0.9,1.3-1.1c0.5-0.2,1.1-0.3,1.7-0.3
	c1.3,0,2.2,0.4,2.9,1.3c0.7,0.9,1,2.1,1,3.7c0,1.6-0.4,2.8-1.1,3.7C317.6,60.4,316.6,60.8,315.3,60.8z M315.1,52.1
	c-1,0-1.7,0.3-2.1,0.8c-0.4,0.5-0.7,1.4-0.7,2.6v0.3c0,1.3,0.2,2.3,0.7,2.9c0.4,0.6,1.2,0.9,2.2,0.9c0.8,0,1.5-0.3,1.9-1
	c0.5-0.7,0.7-1.6,0.7-2.8c0-1.2-0.2-2.1-0.7-2.7C316.6,52.4,316,52.1,315.1,52.1z M326.3,60.8c-0.6,0-1.2-0.1-1.7-0.3
	c-0.5-0.2-0.9-0.6-1.3-1.1h-0.1c0.1,0.6,0.1,1.1,0.1,1.6v3.9h-1.5V51.1h1.2l0.2,1.3h0.1c0.4-0.5,0.8-0.9,1.3-1.1
	c0.5-0.2,1.1-0.3,1.7-0.3c1.3,0,2.2,0.4,2.9,1.3c0.7,0.9,1,2.1,1,3.7c0,1.6-0.4,2.8-1.1,3.7C328.5,60.4,327.6,60.8,326.3,60.8z
	 M326.1,52.1c-1,0-1.7,0.3-2.1,0.8c-0.4,0.5-0.7,1.4-0.7,2.6v0.3c0,1.3,0.2,2.3,0.7,2.9c0.4,0.6,1.2,0.9,2.2,0.9
	c0.8,0,1.5-0.3,1.9-1c0.5-0.7,0.7-1.6,0.7-2.8c0-1.2-0.2-2.1-0.7-2.7C327.6,52.4,327,52.1,326.1,52.1z M334.3,60.6h-1.5V47h1.5V60.6
	z M341.4,60.8c-1.4,0-2.5-0.4-3.4-1.3c-0.8-0.9-1.2-2.1-1.2-3.6c0-1.5,0.4-2.8,1.1-3.7c0.8-0.9,1.8-1.4,3.1-1.4
	c1.2,0,2.2,0.4,2.8,1.2c0.7,0.8,1,1.8,1,3.1v0.9h-6.6c0,1.1,0.3,2,0.8,2.6c0.5,0.6,1.3,0.9,2.3,0.9c1,0,2.1-0.2,3.1-0.6v1.3
	c-0.5,0.2-1,0.4-1.5,0.5C342.6,60.8,342.1,60.8,341.4,60.8z M341,52.1c-0.8,0-1.4,0.2-1.8,0.8c-0.5,0.5-0.7,1.2-0.8,2.1h5
	c0-0.9-0.2-1.6-0.6-2.1C342.4,52.3,341.8,52.1,341,52.1z M352.3,60.6V47.9h1.5v12.8H352.3z M363.6,60.6v-6.2c0-0.8-0.2-1.4-0.5-1.7
	c-0.4-0.4-0.9-0.6-1.7-0.6c-1,0-1.7,0.3-2.2,0.8c-0.5,0.5-0.7,1.4-0.7,2.7v5h-1.5v-9.6h1.2l0.2,1.3h0.1c0.3-0.5,0.7-0.8,1.3-1.1
	c0.5-0.3,1.1-0.4,1.8-0.4c1.2,0,2,0.3,2.6,0.8c0.6,0.6,0.9,1.4,0.9,2.7v6.3H363.6z M371.9,60.8c-1.4,0-2.5-0.4-3.2-1.3
	c-0.8-0.9-1.1-2.1-1.1-3.6c0-1.6,0.4-2.8,1.2-3.7c0.8-0.9,1.9-1.3,3.3-1.3c0.5,0,0.9,0,1.4,0.1c0.5,0.1,0.8,0.2,1.1,0.3l-0.4,1.2
	c-0.3-0.1-0.7-0.2-1-0.3c-0.4-0.1-0.7-0.1-1-0.1c-1.9,0-2.9,1.2-2.9,3.7c0,1.2,0.2,2.1,0.7,2.7c0.5,0.6,1.2,0.9,2.1,0.9
	c0.8,0,1.6-0.2,2.5-0.5v1.3C373.7,60.6,372.9,60.8,371.9,60.8z"/>
<path class="st2" d="M310.3,37.9l-1.6-4.5h-6.2l-1.6,4.5H298l6.1-16.4h2.9l6.1,16.4H310.3z M307.9,31.1l-1.5-4.4
	c-0.1-0.3-0.3-0.8-0.5-1.4c-0.2-0.6-0.3-1.1-0.4-1.4c-0.2,0.9-0.5,1.9-0.9,3l-1.5,4.2H307.9z M324.9,37.9l-1.6-4.5H317l-1.6,4.5
	h-2.8l6.1-16.4h2.9l6.1,16.4H324.9z M322.6,31.1l-1.5-4.4c-0.1-0.3-0.3-0.8-0.5-1.4c-0.2-0.6-0.3-1.1-0.4-1.4
	c-0.2,0.9-0.5,1.9-0.9,3l-1.5,4.2H322.6z M340.2,26.6c0,1.7-0.6,3-1.7,3.9c-1.1,0.9-2.7,1.4-4.8,1.4h-1.7v6.1h-2.7V21.7h4.7
	c2,0,3.6,0.4,4.6,1.2C339.7,23.7,340.2,25,340.2,26.6z M332.1,29.6h1.4c1.4,0,2.4-0.2,3-0.7c0.6-0.5,1-1.2,1-2.2
	c0-0.9-0.3-1.6-0.9-2.1c-0.6-0.5-1.5-0.7-2.7-0.7h-1.9V29.6z M343,37.9V21.7h2.7v14h6.9v2.3H343z"/>
<path class="st1" d="M333.3,191.8c0,1.4-0.4,2.6-1.1,3.4c-0.7,0.8-1.7,1.2-3.1,1.2c-1.3,0-2.4-0.4-3.1-1.2c-0.7-0.8-1.1-1.9-1.1-3.4
	c0-1.5,0.4-2.6,1.1-3.4c0.7-0.8,1.8-1.2,3.1-1.2c1.3,0,2.3,0.4,3.1,1.2C333,189.3,333.3,190.4,333.3,191.8z M326.6,191.8
	c0,1.1,0.2,1.9,0.7,2.5c0.4,0.6,1.1,0.8,2,0.8c0.9,0,1.5-0.3,1.9-0.8c0.4-0.6,0.7-1.4,0.7-2.5c0-1.1-0.2-1.9-0.7-2.5
	c-0.4-0.6-1.1-0.8-1.9-0.8c-0.9,0-1.5,0.3-2,0.8C326.8,189.9,326.6,190.8,326.6,191.8z M337.8,196.4c-1,0-1.8-0.3-2.3-0.9
	c-0.5-0.6-0.8-1.4-0.8-2.6c0-1.1,0.3-2,0.8-2.6c0.6-0.6,1.4-0.9,2.4-0.9c0.7,0,1.3,0.1,1.9,0.4l-0.4,1.1c-0.6-0.2-1.1-0.4-1.5-0.4
	c-1.2,0-1.7,0.8-1.7,2.3c0,0.8,0.1,1.3,0.4,1.7c0.3,0.4,0.7,0.6,1.3,0.6c0.6,0,1.2-0.2,1.8-0.5v1.2c-0.3,0.2-0.5,0.3-0.8,0.3
	C338.5,196.4,338.2,196.4,337.8,196.4z M343.7,195.3c0.3,0,0.7-0.1,1-0.2v1.1c-0.2,0.1-0.4,0.1-0.6,0.2c-0.2,0-0.5,0.1-0.8,0.1
	c-1.3,0-2-0.7-2-2.1v-3.6h-0.9V190l1-0.5l0.5-1.4h0.9v1.5h1.9v1.1h-1.9v3.6c0,0.3,0.1,0.6,0.3,0.8
	C343.2,195.2,343.4,195.3,343.7,195.3z M354.8,196.3h-6v-1.1l2.3-2.3c0.7-0.7,1.1-1.2,1.3-1.5c0.2-0.3,0.4-0.6,0.5-0.8
	c0.1-0.3,0.2-0.5,0.2-0.8c0-0.4-0.1-0.7-0.4-0.9c-0.2-0.2-0.6-0.3-1-0.3c-0.3,0-0.7,0.1-1,0.2c-0.3,0.1-0.7,0.4-1.1,0.7l-0.8-0.9
	c0.5-0.4,1-0.7,1.4-0.9c0.5-0.2,1-0.3,1.5-0.3c0.8,0,1.5,0.2,2,0.6c0.5,0.4,0.7,1,0.7,1.7c0,0.4-0.1,0.8-0.2,1.1
	c-0.1,0.4-0.4,0.7-0.7,1.1c-0.3,0.4-0.8,0.9-1.5,1.5l-1.5,1.5v0.1h4.2V196.3z M361.9,191.9c0,1.5-0.2,2.7-0.7,3.4
	c-0.5,0.7-1.2,1.1-2.3,1.1c-1,0-1.7-0.4-2.2-1.2c-0.5-0.8-0.8-1.9-0.8-3.4c0-1.6,0.2-2.7,0.7-3.5c0.5-0.7,1.3-1.1,2.3-1.1
	c1,0,1.7,0.4,2.2,1.2C361.7,189.2,361.9,190.4,361.9,191.9z M357.4,191.9c0,1.2,0.1,2.1,0.4,2.6c0.3,0.5,0.6,0.8,1.2,0.8
	c0.5,0,0.9-0.3,1.2-0.8c0.3-0.5,0.4-1.4,0.4-2.6c0-1.2-0.1-2-0.4-2.6c-0.3-0.5-0.6-0.8-1.2-0.8c-0.5,0-0.9,0.3-1.2,0.8
	C357.5,189.8,357.4,190.7,357.4,191.9z M367.2,196.3h-1.4v-5.7c0-0.7,0-1.2,0-1.6c-0.1,0.1-0.2,0.2-0.3,0.3
	c-0.1,0.1-0.6,0.5-1.4,1.1l-0.7-0.9l2.6-2h1.2V196.3z M373.1,187.3c0.8,0,1.5,0.2,2,0.6c0.5,0.4,0.7,0.9,0.7,1.5
	c0,0.9-0.5,1.6-1.6,2.2c0.7,0.3,1.2,0.7,1.5,1.1c0.3,0.4,0.4,0.8,0.4,1.3c0,0.7-0.3,1.3-0.8,1.8c-0.5,0.4-1.3,0.7-2.2,0.7
	c-1,0-1.7-0.2-2.2-0.6c-0.5-0.4-0.8-1-0.8-1.8c0-0.5,0.1-0.9,0.4-1.3c0.3-0.4,0.7-0.7,1.4-1.1c-0.5-0.3-0.9-0.7-1.2-1
	c-0.2-0.4-0.3-0.8-0.3-1.2c0-0.6,0.3-1.2,0.8-1.5C371.6,187.5,372.3,187.3,373.1,187.3z M371.5,194c0,0.4,0.1,0.7,0.4,1
	c0.3,0.2,0.7,0.3,1.2,0.3c0.5,0,0.9-0.1,1.2-0.4c0.3-0.2,0.4-0.6,0.4-1c0-0.3-0.1-0.6-0.4-0.9c-0.3-0.3-0.7-0.5-1.2-0.8l-0.2-0.1
	c-0.5,0.2-0.9,0.5-1.2,0.8C371.6,193.3,371.5,193.6,371.5,194z M373.1,188.4c-0.4,0-0.7,0.1-1,0.3c-0.2,0.2-0.4,0.5-0.4,0.8
	c0,0.2,0,0.4,0.1,0.6c0.1,0.2,0.2,0.3,0.4,0.5c0.2,0.1,0.5,0.3,0.9,0.5c0.5-0.2,0.8-0.4,1-0.7c0.2-0.2,0.3-0.5,0.3-0.8
	c0-0.3-0.1-0.6-0.4-0.8C373.8,188.5,373.5,188.4,373.1,188.4z"/>
<path class="st1" d="M440.4,198.8c-0.4,0-0.7-0.1-1-0.2v-1.2c0.3,0.1,0.6,0.1,0.9,0.1c0.8,0,1.2-0.5,1.2-1.5v-8.6h1.5v8.5
	c0,0.9-0.2,1.6-0.6,2.1C441.8,198.5,441.2,198.8,440.4,198.8z M449.2,196.3l-0.3-0.9h0c-0.3,0.4-0.6,0.7-1,0.8
	c-0.3,0.1-0.7,0.2-1.3,0.2c-0.7,0-1.2-0.2-1.5-0.5c-0.4-0.4-0.6-0.9-0.6-1.5c0-0.7,0.3-1.2,0.8-1.6c0.5-0.4,1.3-0.5,2.3-0.6l1.2,0
	v-0.4c0-0.4-0.1-0.7-0.3-1c-0.2-0.2-0.5-0.3-0.9-0.3c-0.3,0-0.7,0-1,0.2c-0.3,0.1-0.6,0.2-0.9,0.4l-0.5-1c0.4-0.2,0.8-0.3,1.2-0.4
	c0.4-0.1,0.8-0.2,1.2-0.2c0.9,0,1.5,0.2,1.9,0.6c0.4,0.4,0.7,1,0.7,1.8v4.5H449.2z M447.1,195.3c0.5,0,0.9-0.1,1.2-0.4
	c0.3-0.3,0.5-0.7,0.5-1.2v-0.6l-0.9,0c-0.7,0-1.2,0.1-1.5,0.3c-0.3,0.2-0.5,0.5-0.5,0.9c0,0.3,0.1,0.5,0.3,0.7
	C446.5,195.2,446.8,195.3,447.1,195.3z M458.1,196.3h-1.4v-4.1c0-0.5-0.1-0.9-0.3-1.2c-0.2-0.3-0.5-0.4-1-0.4c-0.6,0-1,0.2-1.3,0.5
	c-0.3,0.4-0.4,1-0.4,1.8v3.3h-1.4v-6.7h1.1l0.2,0.9h0.1c0.2-0.3,0.5-0.6,0.9-0.7c0.4-0.2,0.8-0.3,1.2-0.3c1.6,0,2.4,0.8,2.4,2.5
	V196.3z M468.9,196.3h-6v-1.1l2.3-2.3c0.7-0.7,1.1-1.2,1.3-1.5c0.2-0.3,0.4-0.6,0.5-0.8c0.1-0.3,0.2-0.5,0.2-0.8
	c0-0.4-0.1-0.7-0.4-0.9c-0.2-0.2-0.6-0.3-1-0.3c-0.3,0-0.7,0.1-1,0.2c-0.3,0.1-0.7,0.4-1.1,0.7l-0.8-0.9c0.5-0.4,1-0.7,1.4-0.9
	c0.5-0.2,1-0.3,1.5-0.3c0.8,0,1.5,0.2,2,0.6c0.5,0.4,0.7,1,0.7,1.7c0,0.4-0.1,0.8-0.2,1.1c-0.1,0.4-0.4,0.7-0.7,1.1
	c-0.3,0.4-0.8,0.9-1.5,1.5l-1.5,1.5v0.1h4.2V196.3z M476,191.9c0,1.5-0.2,2.7-0.7,3.4c-0.5,0.7-1.2,1.1-2.3,1.1
	c-1,0-1.7-0.4-2.2-1.2c-0.5-0.8-0.8-1.9-0.8-3.4c0-1.6,0.2-2.7,0.7-3.5c0.5-0.7,1.3-1.1,2.3-1.1c1,0,1.7,0.4,2.2,1.2
	C475.7,189.2,476,190.4,476,191.9z M471.4,191.9c0,1.2,0.1,2.1,0.4,2.6c0.3,0.5,0.6,0.8,1.2,0.8c0.5,0,0.9-0.3,1.2-0.8
	c0.3-0.5,0.4-1.4,0.4-2.6c0-1.2-0.1-2-0.4-2.6c-0.3-0.5-0.6-0.8-1.2-0.8c-0.5,0-0.9,0.3-1.2,0.8
	C471.5,189.8,471.4,190.7,471.4,191.9z M481.2,196.3h-1.4v-5.7c0-0.7,0-1.2,0-1.6c-0.1,0.1-0.2,0.2-0.3,0.3
	c-0.1,0.1-0.6,0.5-1.4,1.1l-0.7-0.9l2.6-2h1.2V196.3z M490.1,191.2c0,1.7-0.4,3-1.1,3.9c-0.7,0.9-1.8,1.3-3.2,1.3
	c-0.5,0-0.9,0-1.2-0.1v-1.2c0.4,0.1,0.7,0.2,1.1,0.2c1,0,1.7-0.3,2.2-0.8c0.5-0.5,0.7-1.3,0.8-2.4h-0.1c-0.2,0.4-0.5,0.6-0.9,0.8
	c-0.3,0.2-0.7,0.2-1.2,0.2c-0.8,0-1.4-0.2-1.8-0.7c-0.4-0.5-0.7-1.2-0.7-2c0-0.9,0.3-1.7,0.8-2.2c0.5-0.5,1.2-0.8,2.1-0.8
	c0.6,0,1.2,0.2,1.6,0.5c0.5,0.3,0.8,0.8,1.1,1.3C490,189.7,490.1,190.4,490.1,191.2z M487,188.5c-0.5,0-0.9,0.2-1.1,0.5
	c-0.3,0.3-0.4,0.8-0.4,1.4c0,0.5,0.1,0.9,0.4,1.2c0.2,0.3,0.6,0.4,1.1,0.4c0.5,0,0.9-0.1,1.2-0.4s0.5-0.6,0.5-1c0-0.4-0.1-0.7-0.2-1
	c-0.1-0.3-0.3-0.6-0.6-0.7C487.7,188.6,487.4,188.5,487,188.5z"/>
<path class="st1" d="M574,196.3l-0.9-2.5h-3.4l-0.9,2.5h-1.5l3.3-8.9h1.6l3.3,8.9H574z M572.7,192.6l-0.8-2.4
	c-0.1-0.2-0.1-0.4-0.3-0.8c-0.1-0.3-0.2-0.6-0.2-0.8c-0.1,0.5-0.3,1-0.5,1.6l-0.8,2.3H572.7z M579.9,196.4c-0.8,0-1.5-0.3-2-0.9
	h-0.1c0.1,0.6,0.1,0.9,0.1,1v2.7h-1.4v-9.7h1.2c0,0.1,0.1,0.4,0.2,0.9h0.1c0.4-0.7,1.1-1,2-1c0.8,0,1.5,0.3,2,0.9
	c0.5,0.6,0.7,1.5,0.7,2.6c0,1.1-0.2,1.9-0.7,2.6C581.4,196.1,580.8,196.4,579.9,196.4z M579.6,190.6c-0.6,0-1,0.2-1.2,0.5
	c-0.3,0.3-0.4,0.9-0.4,1.6v0.2c0,0.8,0.1,1.4,0.4,1.8c0.3,0.4,0.7,0.5,1.3,0.5c0.5,0,0.9-0.2,1.1-0.6c0.3-0.4,0.4-1,0.4-1.7
	c0-0.8-0.1-1.3-0.4-1.7C580.5,190.8,580.1,190.6,579.6,190.6z M587.7,189.5c0.3,0,0.5,0,0.7,0.1l-0.1,1.3c-0.2,0-0.4-0.1-0.6-0.1
	c-0.6,0-1,0.2-1.4,0.6c-0.4,0.4-0.5,0.9-0.5,1.4v3.5h-1.4v-6.7h1.1l0.2,1.2h0.1c0.2-0.4,0.5-0.7,0.9-1
	C586.9,189.6,587.3,189.5,587.7,189.5z M598.4,196.3h-6v-1.1l2.3-2.3c0.7-0.7,1.1-1.2,1.3-1.5c0.2-0.3,0.4-0.6,0.5-0.8
	c0.1-0.3,0.2-0.5,0.2-0.8c0-0.4-0.1-0.7-0.4-0.9c-0.2-0.2-0.6-0.3-1-0.3c-0.3,0-0.7,0.1-1,0.2c-0.3,0.1-0.7,0.4-1.1,0.7l-0.8-0.9
	c0.5-0.4,1-0.7,1.4-0.9c0.5-0.2,1-0.3,1.5-0.3c0.8,0,1.5,0.2,2,0.6c0.5,0.4,0.7,1,0.7,1.7c0,0.4-0.1,0.8-0.2,1.1
	c-0.1,0.4-0.4,0.7-0.7,1.1c-0.3,0.4-0.8,0.9-1.5,1.5l-1.5,1.5v0.1h4.2V196.3z M605.5,191.9c0,1.5-0.2,2.7-0.7,3.4
	c-0.5,0.7-1.2,1.1-2.3,1.1c-1,0-1.7-0.4-2.2-1.2c-0.5-0.8-0.8-1.9-0.8-3.4c0-1.6,0.2-2.7,0.7-3.5c0.5-0.7,1.3-1.1,2.3-1.1
	c1,0,1.7,0.4,2.2,1.2C605.2,189.2,605.5,190.4,605.5,191.9z M600.9,191.9c0,1.2,0.1,2.1,0.4,2.6c0.3,0.5,0.6,0.8,1.2,0.8
	c0.5,0,0.9-0.3,1.2-0.8c0.3-0.5,0.4-1.4,0.4-2.6c0-1.2-0.1-2-0.4-2.6c-0.3-0.5-0.6-0.8-1.2-0.8c-0.5,0-0.9,0.3-1.2,0.8
	C601,189.8,600.9,190.7,600.9,191.9z M610.7,196.3h-1.4v-5.7c0-0.7,0-1.2,0-1.6c-0.1,0.1-0.2,0.2-0.3,0.3c-0.1,0.1-0.6,0.5-1.4,1.1
	l-0.7-0.9l2.6-2h1.2V196.3z M619.6,191.2c0,1.7-0.4,3-1.1,3.9c-0.7,0.9-1.8,1.3-3.2,1.3c-0.5,0-0.9,0-1.2-0.1v-1.2
	c0.4,0.1,0.7,0.2,1.1,0.2c1,0,1.7-0.3,2.2-0.8c0.5-0.5,0.7-1.3,0.8-2.4h-0.1c-0.2,0.4-0.5,0.6-0.9,0.8c-0.3,0.2-0.7,0.2-1.2,0.2
	c-0.8,0-1.4-0.2-1.8-0.7c-0.4-0.5-0.7-1.2-0.7-2c0-0.9,0.3-1.7,0.8-2.2c0.5-0.5,1.2-0.8,2.1-0.8c0.6,0,1.2,0.2,1.6,0.5
	c0.5,0.3,0.8,0.8,1.1,1.3C619.5,189.7,619.6,190.4,619.6,191.2z M616.5,188.5c-0.5,0-0.9,0.2-1.1,0.5c-0.3,0.3-0.4,0.8-0.4,1.4
	c0,0.5,0.1,0.9,0.4,1.2c0.2,0.3,0.6,0.4,1.1,0.4c0.5,0,0.9-0.1,1.2-0.4c0.3-0.3,0.5-0.6,0.5-1c0-0.4-0.1-0.7-0.2-1
	c-0.1-0.3-0.3-0.6-0.6-0.7C617.2,188.6,616.9,188.5,616.5,188.5z"/>
<linearGradient id="SVGID_4_" gradientUnits="userSpaceOnUse" x1="465.6818" y1="-1810.0083" x2="463.0938" y2="-2036.1935" gradientTransform="matrix(1 0 0 -1 0 -1716.8737)">
	<stop  offset="0" style="stop-color:#FC7373"/>
	<stop  offset="0.3177" style="stop-color:#FC7373;stop-opacity:0"/>
</linearGradient>
<path class="st14" d="M654.2,131c-3.9-2-6.9-3.9-11.5-5.8c-1.3-0.5-1.3,0.7-2,1c0,0-0.5-1.4-1.4-0.2c-0.1,0.2-6.7,3.4-8.5,1.6
	c-0.5-0.5-0.7-3.3-1.8-1.9c-1,1.4-1.8,0.2-3.5,0.5c-1.5,0.3-3.4-4.1-3.6-4.5c-1.3-2.9-0.6-2-3.7-0.1c-0.9,0.6-4,0.9-4,1
	c-0.1,0.5-0.7,4-2,3.5c-1.5-0.6-3.4-1.2-4.2-1.9c-1.3-1.2-1.1-4.9-2.2-3.7c-0.5,0.6-2.6,4.1-5.3,3c-4.6-1.9-2.2-0.3-7.6,0.4
	c-3.7,0.5-5.9-2.5-8-2.1c-2.5,0.5-1.6,4.6-2.6,0.5c-0.9-4,0.3-4.5-1.8-8.8c-0.8-1.6-2.1-0.4-3.1,0.3c-1.3,1-7.9-3.8-8.4-4.3
	c-3.1-2.5-1.7-0.1-4,1.5c-2.7,1.9-11.3-4.1-12.5-4.8c-5.2-3-2.2,3.4-2.4,4.4c-0.1,1,0.2,7.7-5.2,4.2c-1.1-0.7-2.9,3.3-3.3,3.8
	c-2.5,3.3-4.2-1.2-5.5-2.2c-2.3-1.7-3.5,3.5-5.6,5.2c-2.5,2.1-6.1-3.3-6.8-4.2c-1.2-1.4,0.2,1.2-1.1-0.1c-1.3-1.3-2-7.4-5.3-7.9
	c-1.5-0.2-1.5,2.8-2.7,2.8c-2.7,0.1-2.2-3.4-4.4-1.6c-0.6,0.5-4.8,5-6.9,4.7c-2-0.3-9.4-5.2-10.1-4.5c-0.5,0.5-2.4,5.1-4,4.6
	c-3.3-1.1-6.4-5.5-11.8-3.2c-2.6,1.1-3.5,2.4-7.6,1.7c-1.7-0.3-3.7,3-4.9,3.5c-2.2,0.9-6.9-2.1-7.7-2.6c-3-1.7-0.6,0.8-2.9-0.1
	c-4.2-1.6-5-4.1-9-5.8c-2.6-1.1-0.8,2.4-2.8,2.3c-3.2-0.3-7.2-3-10.6-2.7c-2.3,0.2-0.2,2.7-3.7,2.8c-2.9,0.1-5-1.7-7.6-0.4
	c-3,1.5-1.7,1.7-6,0.3l-0.1,0c-2.1-0.7-10.3-3.3-13.2-2.5c-2.4,0.6-2.2,4.2-6.8,2.6c-3.6-1.2-8.1-2.9-10.4-4.4
	c-0.2-0.2-0.4-0.3-0.3-0.2c0.1,0.1,0.2,0.1,0.3,0.2c0.2,0.1,0.4,0.3,0.4,0.4c0.3,0.5-1.5-0.2-1.8-0.3c-2.6-0.7-12-4-15.6-3.5
	c-4.6,0.7-0.3,2-7.6,0c-4.9-1.4-7.5-8.9-9.4-6.3c-2.2,3-7.2-8.7-12.4-10c-4.7-1.2-10,23.2-12.4,25.1c-3.3,2.7-3.3-7.8-7.5-9.6
	c-9,4.3-8.7-3.9-9-3.6c-1.3,1.2-7,8.4-9.6,9.4c-6,2.4-6.5-5.4-14.2-5.3c-3.2,0-1.7,1.1-6.1,0c-1.1-0.3-1.8-0.7-3.1-0.7v84.2h378.1
	V131z"/>
<path class="st15" d="M654.2,132.4c-3.9-2.1-6.9-4-11.5-6c-1.3-0.5-1.3,0.8-2,1c0,0-0.5-1.4-1.4-0.2c-0.1,0.2-6.7,3.6-8.5,1.6
	c-0.5-0.5-0.7-3.4-1.8-1.9c-1,1.4-1.8,0.2-3.5,0.5c-1.5,0.3-3.4-4.2-3.6-4.7c-1.3-3-0.6-2-3.7-0.1c-0.9,0.6-4,0.9-4,1
	c-0.1,0.5-0.7,4.1-2,3.6c-1.5-0.6-3.4-1.2-4.2-2c-1.3-1.2-1.1-5-2.2-3.8c-0.5,0.6-2.6,4.3-5.3,3.1c-4.6-2-2.2-0.3-7.6,0.4
	c-3.7,0.5-5.9-2.6-8-2.2c-2.5,0.5-1.6,4.7-2.6,0.5c-0.9-4.2,0.3-4.7-1.8-9.1c-0.8-1.7-2.1-0.4-3.1,0.3c-1.3,1-7.9-4-8.4-4.4
	c-3.1-2.5-1.7-0.1-4,1.5c-2.7,2-11.3-4.2-12.5-5c-5.2-3.1-2.2,3.5-2.4,4.5c-0.1,1.1,0.2,7.9-5.2,4.3c-1.1-0.8-2.9,3.5-3.3,4
	c-2.5,3.4-4.2-1.2-5.5-2.2c-2.3-1.7-3.5,3.6-5.6,5.4c-2.5,2.1-6.1-3.4-6.8-4.3c-1.2-1.5,0.2,1.2-1.1-0.1c-1.3-1.3-2-7.6-5.3-8.2
	c-1.5-0.2-1.5,2.9-2.7,2.9c-2.7,0.1-2.2-3.5-4.4-1.6c-0.6,0.5-4.8,5.2-6.9,4.8c-2-0.3-9.4-5.3-10.1-4.7c-0.5,0.5-2.4,5.3-4,4.8
	c-3.3-1.1-6.4-5.7-11.8-3.3c-2.6,1.1-3.5,2.5-7.6,1.7c-1.7-0.3-3.7,3.1-4.9,3.6c-2.2,1-6.9-2.2-7.7-2.7c-3-1.8-0.6,0.8-2.9-0.1
	c-4.2-1.7-5-4.2-9-6c-2.6-1.1-0.8,2.5-2.8,2.3c-3.2-0.3-7.2-3.1-10.6-2.8c-2.3,0.2-0.2,2.8-3.7,2.9c-2.9,0.1-5-1.8-7.6-0.4
	c-3,1.5-1.7,1.8-6,0.3c-1.8-0.6-10.4-3.5-13.4-2.7c-2.4,0.7-2.2,4.3-6.8,2.7c-3.7-1.3-8.5-3.1-10.7-4.8c-0.3-0.2,0.6,0.4,0.7,0.6
	c0.3,0.5-1.5-0.2-1.8-0.3c-2.6-0.7-12-4.2-15.6-3.6c-4.6,0.7-0.3,2.1-7.6,0c-4.9-1.4-7.5-9.2-9.4-6.5c-2.2,3.1-7.2-9-12.4-10.3
	c-4.7-1.2-10,24-12.4,25.9c-3.3,2.8-3.3-8.1-7.5-10c-9,4.4-8.7-4-9-3.7c-1.3,1.3-7,8.7-9.6,9.7c-6,2.5-6.5-5.6-14.2-5.5
	c-3.2,0-1.7,1.2-6.1,0c-1.1-0.3-1.8-0.7-3.1-0.7"/>
<path class="st16" d="M596.8,67.3v-1.6h4v1.6H596.8z M609.8,65.1c0,2-0.3,3.5-1,4.4c-0.6,1-1.6,1.4-2.9,1.4c-1.3,0-2.2-0.5-2.9-1.5
	c-0.7-1-1-2.5-1-4.4c0-2,0.3-3.5,1-4.5c0.6-1,1.6-1.4,2.9-1.4c1.3,0,2.2,0.5,2.9,1.5C609.5,61.7,609.8,63.1,609.8,65.1z M603.9,65.1
	c0,1.6,0.2,2.7,0.5,3.3c0.3,0.7,0.8,1,1.5,1s1.2-0.3,1.5-1c0.3-0.7,0.5-1.8,0.5-3.3c0-1.5-0.2-2.6-0.5-3.3c-0.3-0.7-0.8-1-1.5-1
	s-1.2,0.3-1.5,1C604.1,62.4,603.9,63.5,603.9,65.1z M611.6,69.8c0-0.4,0.1-0.7,0.3-0.9c0.2-0.2,0.5-0.3,0.9-0.3
	c0.4,0,0.7,0.1,0.9,0.3c0.2,0.2,0.3,0.5,0.3,0.9c0,0.4-0.1,0.7-0.3,0.9c-0.2,0.2-0.5,0.3-0.9,0.3s-0.7-0.1-0.9-0.3
	C611.7,70.5,611.6,70.2,611.6,69.8z M621,70.8h-1.8v-7.4c0-0.9,0-1.6,0.1-2.1c-0.1,0.1-0.3,0.3-0.4,0.4c-0.2,0.2-0.8,0.6-1.8,1.4
	l-0.9-1.2l3.4-2.6h1.5V70.8z M624.8,65.9c0-4.5,1.8-6.7,5.5-6.7c0.6,0,1.1,0,1.5,0.1v1.5c-0.4-0.1-0.9-0.2-1.4-0.2
	c-1.2,0-2.1,0.3-2.8,1c-0.6,0.7-0.9,1.7-1,3.2h0.1c0.2-0.4,0.6-0.7,1-1c0.4-0.2,1-0.4,1.6-0.4c1,0,1.8,0.3,2.4,1
	c0.6,0.6,0.9,1.5,0.9,2.6c0,1.2-0.3,2.1-1,2.8c-0.7,0.7-1.6,1-2.7,1c-0.8,0-1.5-0.2-2.1-0.6c-0.6-0.4-1.1-1-1.4-1.7
	C625,67.9,624.8,67,624.8,65.9z M628.8,69.4c0.6,0,1.1-0.2,1.5-0.6c0.3-0.4,0.5-1,0.5-1.7c0-0.7-0.2-1.2-0.5-1.5
	c-0.3-0.4-0.8-0.6-1.4-0.6c-0.4,0-0.8,0.1-1.1,0.3c-0.3,0.2-0.6,0.4-0.8,0.7c-0.2,0.3-0.3,0.6-0.3,0.9c0,0.7,0.2,1.4,0.6,1.9
	C627.7,69.2,628.2,69.4,628.8,69.4z"/>
<path class="st2" d="M557.6,44.9h-3.2V32c0-1.5,0-2.8,0.1-3.7c-0.2,0.2-0.5,0.5-0.8,0.7c-0.3,0.3-1.3,1.1-3.1,2.5l-1.6-2l5.9-4.6
	h2.7V44.9z M578.1,40.6h-2.7v4.4h-3.1v-4.4h-9.1v-2.5l9.1-13.2h3.1v13h2.7V40.6z M572.3,37.9v-5c0-1.8,0-3.2,0.1-4.4h-0.1
	c-0.3,0.6-0.7,1.3-1.2,2.2l-5,7.2H572.3z M592.4,29.5c0,1.3-0.4,2.3-1.1,3.2c-0.7,0.8-1.8,1.4-3.1,1.7v0.1c1.6,0.2,2.8,0.7,3.6,1.5
	c0.8,0.8,1.2,1.9,1.2,3.2c0,1.9-0.7,3.4-2,4.5c-1.4,1-3.3,1.6-5.8,1.6c-2.2,0-4.1-0.4-5.6-1.1v-2.9c0.8,0.4,1.7,0.7,2.7,1
	c0.9,0.2,1.9,0.3,2.7,0.3c1.5,0,2.7-0.3,3.5-0.9c0.8-0.6,1.1-1.5,1.1-2.7c0-1.1-0.4-1.8-1.3-2.4c-0.8-0.5-2.2-0.8-4-0.8h-1.7v-2.6
	h1.8c3.2,0,4.8-1.1,4.8-3.3c0-0.9-0.3-1.5-0.8-2c-0.6-0.5-1.4-0.7-2.5-0.7c-0.8,0-1.5,0.1-2.2,0.3c-0.7,0.2-1.5,0.6-2.5,1.2
	l-1.6-2.2c1.8-1.3,4-2,6.4-2c2,0,3.6,0.4,4.7,1.3C591.8,26.8,592.4,28,592.4,29.5z M595.9,43.2c0-0.7,0.2-1.2,0.5-1.5
	c0.3-0.4,0.8-0.5,1.5-0.5c0.7,0,1.2,0.2,1.5,0.6c0.3,0.4,0.5,0.9,0.5,1.5c0,0.6-0.2,1.2-0.5,1.5c-0.3,0.4-0.8,0.6-1.5,0.6
	s-1.2-0.2-1.5-0.6C596.1,44.4,595.9,43.9,595.9,43.2z M616.3,34.9c0,3.5-0.6,6.1-1.7,7.7c-1.1,1.7-2.8,2.5-5.1,2.5
	c-2.2,0-3.9-0.9-5.1-2.6c-1.1-1.7-1.7-4.3-1.7-7.7c0-3.5,0.6-6.1,1.7-7.8c1.1-1.7,2.8-2.5,5.1-2.5c2.2,0,3.9,0.9,5.1,2.6
	C615.7,29,616.3,31.6,616.3,34.9z M606,34.9c0,2.7,0.3,4.7,0.8,5.8c0.6,1.2,1.5,1.8,2.7,1.8c1.2,0,2.1-0.6,2.7-1.8
	c0.6-1.2,0.9-3.1,0.9-5.8c0-2.7-0.3-4.6-0.9-5.8c-0.6-1.2-1.5-1.8-2.7-1.8c-1.2,0-2.1,0.6-2.7,1.8C606.2,30.3,606,32.2,606,34.9z
	 M627.9,44.9h-3.2V32c0-1.5,0-2.8,0.1-3.7c-0.2,0.2-0.5,0.5-0.8,0.7c-0.3,0.3-1.3,1.1-3.1,2.5l-1.6-2l5.9-4.6h2.7V44.9z"/>
<line class="st6" x1="350.7" y1="163.8" x2="350.7" y2="178.4"/>
<line class="st6" x1="465.8" y1="163.8" x2="465.8" y2="178.4"/>
<line class="st6" x1="594" y1="163.8" x2="594" y2="178.4"/>
<g>
	<path class="st0" d="M126.4,231l452.8,0.2c1.9,0,3.4,1.3,3.4,3l0,42.8c0,1.6-1.5,2.9-3.4,2.9l-452.8-0.2c-1.9,0-3.4-1.3-3.4-3
		l0-42.8C123,232.3,124.5,231,126.4,231z"/>
</g>
<path class="st2" d="M141.9,259.2l-2.1,0l0-5.8l0-0.9l0-1c-0.4,0.4-0.6,0.6-0.7,0.7l-1.1,0.9l-1-1.3l3.2-2.6l1.7,0L141.9,259.2z
	 M151.2,251.4c0,0.6-0.2,1.2-0.6,1.6c-0.4,0.4-0.9,0.7-1.6,0.9l0,0c0.8,0.1,1.4,0.3,1.8,0.7c0.4,0.4,0.6,0.9,0.6,1.6
	c0,1-0.3,1.7-1,2.2c-0.7,0.5-1.7,0.8-3,0.8c-1.1,0-2-0.2-2.9-0.5l0-1.8c0.4,0.2,0.8,0.4,1.3,0.5c0.5,0.1,0.9,0.2,1.4,0.2
	c0.7,0,1.2-0.1,1.5-0.4c0.3-0.2,0.5-0.6,0.5-1.1c0-0.5-0.2-0.8-0.6-1s-1-0.3-1.8-0.3l-0.8,0l0-1.6l0.8,0c0.8,0,1.3-0.1,1.7-0.3
	c0.4-0.2,0.5-0.6,0.5-1c0-0.8-0.5-1.1-1.4-1.1c-0.3,0-0.7,0.1-1,0.2c-0.3,0.1-0.7,0.3-1.1,0.6l-1-1.5c0.9-0.7,2-1,3.3-1
	c1,0,1.8,0.2,2.4,0.6C150.9,250.1,151.2,250.7,151.2,251.4z M159.8,257.1l-1.2,0l0,2.1l-2.1,0l0-2.1l-4.3,0l0-1.5l4.4-6.4l1.9,0
	l0,6.3l1.2,0L159.8,257.1z M156.6,255.5l0-1.7c0-0.3,0-0.7,0-1.2c0-0.5,0-0.8,0.1-0.9l-0.1,0c-0.2,0.4-0.4,0.7-0.6,1.1l-1.8,2.8
	L156.6,255.5z M160.9,258.2c0-0.4,0.1-0.7,0.3-0.9c0.2-0.2,0.5-0.3,0.9-0.3c0.4,0,0.7,0.1,0.9,0.3c0.2,0.2,0.3,0.5,0.3,0.9
	c0,0.4-0.1,0.6-0.3,0.9c-0.2,0.2-0.5,0.3-0.9,0.3c-0.4,0-0.7-0.1-0.9-0.3C161,258.9,160.9,258.6,160.9,258.2z M165.6,259.2l3.8-8.2
	l-4.9,0l0-1.8l7.2,0l0,1.3l-3.8,8.6L165.6,259.2z M173.6,259.2l3.8-8.2l-4.9,0l0-1.8l7.2,0l0,1.3l-3.8,8.6L173.6,259.2z"/>
<path class="st5" d="M198.9,254.9l-2.7,0l0-1.2l2.7,0l0-2.8l1.2,0l0,2.8l2.7,0l0,1.2l-2.7,0l0,2.8l-1.2,0L198.9,254.9z M210.9,254.2
	c0,1.7-0.3,3-0.8,3.9c-0.6,0.8-1.4,1.3-2.6,1.3c-1.1,0-2-0.4-2.5-1.3c-0.6-0.9-0.9-2.1-0.9-3.8c0-1.8,0.3-3.1,0.8-3.9
	c0.6-0.8,1.4-1.3,2.6-1.3c1.1,0,2,0.4,2.5,1.3C210.6,251.3,210.9,252.5,210.9,254.2z M205.8,254.2c0,1.4,0.1,2.3,0.4,2.9
	c0.3,0.6,0.7,0.9,1.3,0.9c0.6,0,1.1-0.3,1.3-0.9c0.3-0.6,0.4-1.6,0.4-2.9c0-1.3-0.1-2.3-0.4-2.9c-0.3-0.6-0.7-0.9-1.3-0.9
	c-0.6,0-1.1,0.3-1.3,0.9C205.9,251.9,205.8,252.9,205.8,254.2z M212.4,258.4c0-0.3,0.1-0.6,0.3-0.8c0.2-0.2,0.4-0.3,0.8-0.3
	c0.3,0,0.6,0.1,0.8,0.3c0.2,0.2,0.3,0.4,0.3,0.8c0,0.3-0.1,0.6-0.3,0.8c-0.2,0.2-0.4,0.3-0.8,0.3c-0.3,0-0.6-0.1-0.8-0.3
	C212.5,259,212.4,258.7,212.4,258.4z M222.8,254.2c0,1.7-0.3,3-0.8,3.9c-0.6,0.8-1.4,1.3-2.6,1.3c-1.1,0-2-0.4-2.5-1.3
	c-0.6-0.9-0.9-2.1-0.9-3.8c0-1.8,0.3-3.1,0.8-3.9c0.6-0.8,1.4-1.3,2.6-1.3c1.1,0,2,0.4,2.5,1.3C222.5,251.3,222.8,252.6,222.8,254.2
	z M217.6,254.2c0,1.4,0.1,2.3,0.4,2.9c0.3,0.6,0.7,0.9,1.3,0.9c0.6,0,1.1-0.3,1.3-0.9c0.3-0.6,0.4-1.6,0.4-2.9
	c0-1.3-0.1-2.3-0.4-2.9c-0.3-0.6-0.7-0.9-1.3-0.9c-0.6,0-1.1,0.3-1.3,0.9C217.8,251.9,217.6,252.9,217.6,254.2z M227.6,255.4
	c0-1.2,0.2-2.3,0.5-3.4c0.4-1.1,0.9-2,1.5-2.8l1.4,0c-0.6,0.9-1.1,1.8-1.5,2.9c-0.3,1.1-0.5,2.1-0.5,3.3c0,1.1,0.2,2.2,0.5,3.2
	c0.3,1,0.8,2,1.4,2.8l-1.4,0c-0.7-0.8-1.2-1.7-1.5-2.7C227.7,257.7,227.6,256.6,227.6,255.4z M238.8,254.2c0,1.7-0.3,3-0.8,3.9
	c-0.6,0.8-1.4,1.3-2.6,1.3c-1.1,0-2-0.4-2.5-1.3c-0.6-0.9-0.9-2.1-0.9-3.8c0-1.8,0.3-3.1,0.8-3.9c0.6-0.8,1.4-1.3,2.6-1.3
	c1.1,0,2,0.4,2.5,1.3C238.6,251.3,238.8,252.6,238.8,254.2z M233.7,254.2c0,1.4,0.1,2.3,0.4,2.9c0.3,0.6,0.7,0.9,1.3,0.9
	c0.6,0,1.1-0.3,1.3-0.9c0.3-0.6,0.4-1.6,0.4-2.9c0-1.3-0.1-2.3-0.4-2.9c-0.3-0.6-0.7-0.9-1.3-0.9c-0.6,0-1.1,0.3-1.3,0.9
	C233.8,251.9,233.7,252.9,233.7,254.2z M240.4,258.4c0-0.3,0.1-0.6,0.3-0.8c0.2-0.2,0.4-0.3,0.8-0.3c0.3,0,0.6,0.1,0.8,0.3
	c0.2,0.2,0.3,0.4,0.3,0.8c0,0.3-0.1,0.6-0.3,0.8c-0.2,0.2-0.4,0.3-0.8,0.3c-0.3,0-0.6-0.1-0.8-0.3
	C240.4,259,240.4,258.7,240.4,258.4z M250.7,254.3c0,1.7-0.3,3-0.8,3.9c-0.6,0.8-1.4,1.3-2.6,1.3c-1.1,0-2-0.4-2.5-1.3
	c-0.6-0.9-0.9-2.1-0.9-3.8c0-1.8,0.3-3.1,0.8-3.9c0.6-0.8,1.4-1.3,2.6-1.3c1.1,0,2,0.4,2.5,1.3C250.4,251.3,250.7,252.6,250.7,254.3
	z M245.5,254.2c0,1.4,0.1,2.3,0.4,2.9c0.3,0.6,0.7,0.9,1.3,0.9c0.6,0,1.1-0.3,1.3-0.9c0.3-0.6,0.4-1.6,0.4-2.9
	c0-1.3-0.1-2.3-0.4-2.9c-0.3-0.6-0.7-0.9-1.3-0.9c-0.6,0-1.1,0.3-1.3,0.9C245.7,251.9,245.5,252.9,245.5,254.2z M253.2,252.3
	c0,0.7,0.1,1.2,0.2,1.5c0.1,0.3,0.3,0.5,0.6,0.5c0.6,0,0.9-0.7,0.9-2c0-1.3-0.3-2-0.9-2c-0.3,0-0.5,0.2-0.6,0.5
	C253.3,251.1,253.2,251.6,253.2,252.3z M256.3,252.2c0,1-0.2,1.8-0.6,2.4c-0.4,0.5-0.9,0.8-1.7,0.8c-0.7,0-1.2-0.3-1.6-0.8
	c-0.4-0.5-0.6-1.3-0.6-2.3c0-2.1,0.7-3.1,2.2-3.1c0.7,0,1.3,0.3,1.6,0.8C256.1,250.5,256.3,251.2,256.3,252.2z M259.7,256.2
	c0,0.7,0.1,1.2,0.2,1.5c0.1,0.3,0.4,0.5,0.7,0.5c0.6,0,0.9-0.7,0.9-2c0-1.3-0.3-2-0.9-2c-0.3,0-0.5,0.2-0.7,0.5
	C259.8,255.1,259.7,255.6,259.7,256.2z M262.8,256.2c0,1-0.2,1.8-0.6,2.4c-0.4,0.5-0.9,0.8-1.7,0.8c-0.7,0-1.2-0.3-1.6-0.8
	c-0.4-0.5-0.6-1.3-0.6-2.3c0-2.1,0.7-3.1,2.2-3.1c0.7,0,1.2,0.3,1.6,0.8C262.6,254.5,262.8,255.2,262.8,256.2z M260.8,249.3l-5.5,10
	l-1.3,0l5.5-10L260.8,249.3z M267.2,255.4c0,1.2-0.2,2.3-0.5,3.3c-0.4,1-0.9,1.9-1.5,2.7l-1.4,0c0.6-0.9,1.1-1.8,1.4-2.8
	c0.3-1,0.5-2.1,0.5-3.2c0-1.1-0.2-2.2-0.5-3.3c-0.3-1.1-0.8-2-1.5-2.9l1.4,0c0.7,0.8,1.2,1.7,1.5,2.8
	C267.1,253.1,267.2,254.2,267.2,255.4z"/>
<line class="st17" x1="287.1" y1="239.7" x2="287" y2="270.4"/>
<path class="st2" d="M311.1,259.3l-1-2.8l-3.8,0l-1,2.8l-1.7,0l3.7-10l1.8,0l3.7,10L311.1,259.3z M309.7,255.1l-0.9-2.7
	c-0.1-0.2-0.2-0.5-0.3-0.9c-0.1-0.4-0.2-0.7-0.2-0.9c-0.1,0.6-0.3,1.2-0.5,1.8l-0.9,2.6L309.7,255.1z M320.4,259.3l-1-2.8l-3.8,0
	l-1,2.8l-1.7,0l3.7-10l1.8,0l3.7,10L320.4,259.3z M318.9,255.2l-0.9-2.7c-0.1-0.2-0.2-0.5-0.3-0.9c-0.1-0.4-0.2-0.7-0.2-0.9
	c-0.1,0.6-0.3,1.2-0.5,1.8l-0.9,2.6L318.9,255.2z M330,252.4c0,1-0.3,1.8-1,2.4c-0.7,0.6-1.7,0.8-2.9,0.8l-1,0l0,3.7l-1.6,0l0-10
	l2.9,0c1.2,0,2.2,0.3,2.8,0.8C329.7,250.6,330,251.4,330,252.4z M325,254.2l0.9,0c0.8,0,1.5-0.1,1.8-0.4c0.4-0.3,0.6-0.7,0.6-1.4
	c0-0.6-0.2-1-0.5-1.3c-0.4-0.3-0.9-0.4-1.6-0.4l-1.1,0L325,254.2z M332,259.3l0-10l1.6,0l0,8.6l4.2,0l0,1.4L332,259.3z"/>
<path class="st2" d="M433.5,259.4l-2.1,0l0-5.8l0-0.9l0-1c-0.4,0.4-0.6,0.6-0.7,0.7l-1.1,0.9l-1-1.3l3.2-2.6l1.7,0L433.5,259.4z
	 M443.5,257.3l-1.2,0l0,2.1l-2.1,0l0-2.1l-4.3,0l0-1.5l4.4-6.4l1.9,0l0,6.3l1.2,0L443.5,257.3z M440.3,255.7l0-1.7
	c0-0.3,0-0.7,0-1.2c0-0.5,0-0.8,0.1-0.9l-0.1,0c-0.2,0.4-0.4,0.7-0.6,1.1l-1.8,2.8L440.3,255.7z M451.5,257.3l-1.2,0l0,2.1l-2.1,0
	l0-2.1l-4.3,0l0-1.5l4.4-6.4l1.9,0l0,6.3l1.2,0L451.5,257.3z M448.3,255.7l0-1.7c0-0.3,0-0.7,0-1.2c0-0.5,0-0.8,0.1-0.9l-0.1,0
	c-0.2,0.4-0.4,0.7-0.6,1.1l-1.8,2.8L448.3,255.7z M452.5,258.4c0-0.4,0.1-0.7,0.3-0.9c0.2-0.2,0.5-0.3,0.9-0.3
	c0.4,0,0.7,0.1,0.9,0.3c0.2,0.2,0.3,0.5,0.3,0.9c0,0.4-0.1,0.6-0.3,0.9c-0.2,0.2-0.5,0.3-0.9,0.3c-0.4,0-0.7-0.1-0.9-0.3
	C452.6,259.1,452.5,258.8,452.5,258.4z M459.7,249.3c1,0,1.7,0.2,2.3,0.7c0.6,0.4,0.9,1,0.9,1.8c0,0.5-0.1,1-0.4,1.4
	c-0.3,0.4-0.7,0.8-1.4,1.1c0.7,0.4,1.3,0.8,1.6,1.3c0.3,0.4,0.5,0.9,0.5,1.4c0,0.8-0.3,1.5-1,2c-0.6,0.5-1.5,0.7-2.5,0.7
	c-1.1,0-2-0.2-2.6-0.7c-0.6-0.5-0.9-1.1-0.9-2c0-0.6,0.2-1.1,0.5-1.5c0.3-0.4,0.8-0.8,1.5-1.2c-0.6-0.4-1-0.7-1.2-1.2
	c-0.3-0.4-0.4-0.9-0.4-1.3c0-0.7,0.3-1.3,0.9-1.7C458,249.5,458.8,249.3,459.7,249.3z M458.2,256.7c0,0.4,0.1,0.7,0.4,0.9
	c0.3,0.2,0.6,0.3,1.1,0.3c0.5,0,0.9-0.1,1.2-0.3c0.3-0.2,0.4-0.5,0.4-0.9c0-0.3-0.1-0.6-0.4-0.9c-0.3-0.3-0.7-0.6-1.3-0.9
	C458.7,255.5,458.2,256.1,458.2,256.7z M459.7,250.8c-0.4,0-0.7,0.1-0.9,0.3c-0.2,0.2-0.3,0.4-0.3,0.7c0,0.3,0.1,0.5,0.3,0.7
	c0.2,0.2,0.5,0.4,1,0.7c0.4-0.2,0.8-0.4,0.9-0.6c0.2-0.2,0.3-0.5,0.3-0.8c0-0.3-0.1-0.6-0.3-0.7
	C460.4,250.9,460.1,250.8,459.7,250.8z M469.5,259.4l-2.1,0l0-5.8l0-0.9l0-1c-0.4,0.3-0.6,0.6-0.7,0.7l-1.1,0.9l-1-1.3l3.2-2.6
	l1.7,0L469.5,259.4z"/>
<path class="st1" d="M356.6,259.3l-1-2.8l-3.8,0l-1,2.8l-1.7,0l3.7-10l1.8,0l3.7,10L356.6,259.3z M355.2,255.2l-0.9-2.7
	c-0.1-0.2-0.2-0.5-0.3-0.9c-0.1-0.4-0.2-0.7-0.2-0.9c-0.1,0.6-0.3,1.2-0.5,1.8l-0.9,2.6L355.2,255.2z M363.3,259.5
	c-1,0-1.7-0.3-2.2-1l-0.1,0c0.1,0.6,0.1,1,0.1,1.2l0,3.1l-1.6,0l0-10.9l1.3,0c0,0.1,0.1,0.5,0.2,1l0.1,0c0.5-0.8,1.3-1.1,2.3-1.1
	c0.9,0,1.7,0.3,2.2,1c0.5,0.7,0.8,1.6,0.8,2.9c0,1.2-0.3,2.2-0.8,2.9C365,259.1,364.2,259.5,363.3,259.5z M362.9,253
	c-0.6,0-1.1,0.2-1.4,0.6c-0.3,0.4-0.4,1-0.4,1.8l0,0.2c0,0.9,0.1,1.6,0.4,2c0.3,0.4,0.8,0.6,1.4,0.6c0.6,0,1-0.2,1.3-0.7
	c0.3-0.5,0.5-1.1,0.5-1.9c0-0.8-0.1-1.5-0.4-1.9C363.9,253.2,363.5,253,362.9,253z M372,259.5c-1,0-1.7-0.3-2.2-1l-0.1,0
	c0.1,0.6,0.1,1,0.1,1.2l0,3.1l-1.6,0l0-10.9l1.3,0c0,0.1,0.1,0.5,0.2,1l0.1,0c0.5-0.8,1.3-1.1,2.3-1.1c0.9,0,1.7,0.3,2.2,1
	c0.5,0.7,0.8,1.6,0.8,2.9c0,1.2-0.3,2.2-0.8,2.9C373.7,259.1,373,259.5,372,259.5z M371.6,253c-0.6,0-1.1,0.2-1.4,0.6
	c-0.3,0.4-0.4,1-0.4,1.8l0,0.2c0,0.9,0.1,1.6,0.4,2c0.3,0.4,0.8,0.6,1.4,0.6c0.6,0,1-0.2,1.3-0.7c0.3-0.5,0.5-1.1,0.5-1.9
	c0-0.8-0.1-1.5-0.4-1.9C372.6,253.2,372.2,253,371.6,253z M378.5,259.4l-1.6,0l0-10.6l1.6,0L378.5,259.4z M384.1,259.5
	c-1.2,0-2.1-0.3-2.8-1c-0.7-0.7-1-1.6-1-2.8c0-1.2,0.3-2.2,0.9-2.9c0.6-0.7,1.5-1.1,2.5-1.1c1,0,1.8,0.3,2.4,0.9
	c0.6,0.6,0.9,1.4,0.9,2.5l0,0.9l-5,0c0,0.7,0.2,1.3,0.6,1.7c0.4,0.4,0.9,0.6,1.6,0.6c0.4,0,0.9,0,1.2-0.1c0.4-0.1,0.8-0.2,1.2-0.4
	l0,1.3c-0.4,0.2-0.8,0.3-1.2,0.4C385.1,259.5,384.6,259.5,384.1,259.5z M383.8,252.9c-0.5,0-0.9,0.2-1.2,0.5
	c-0.3,0.3-0.5,0.8-0.5,1.4l3.4,0c0-0.6-0.2-1.1-0.5-1.4C384.7,253,384.3,252.9,383.8,252.9z M392.7,259.4l0-10l1.6,0l0,10
	L392.7,259.4z M403.4,259.4l-1.6,0l0-4.6c0-0.6-0.1-1-0.4-1.3c-0.2-0.3-0.6-0.4-1.1-0.4c-0.7,0-1.2,0.2-1.5,0.6
	c-0.3,0.4-0.5,1.1-0.5,2l0,3.8l-1.6,0l0-7.6l1.3,0l0.2,1l0.1,0c0.2-0.4,0.6-0.6,1-0.8c0.4-0.2,0.9-0.3,1.4-0.3
	c1.8,0,2.7,0.9,2.7,2.8L403.4,259.4z M408.7,259.5c-1.1,0-2-0.3-2.6-1c-0.6-0.7-0.9-1.6-0.9-2.9c0-1.3,0.3-2.2,0.9-2.9
	c0.6-0.7,1.5-1,2.7-1c0.8,0,1.5,0.1,2.2,0.4l-0.5,1.3c-0.7-0.3-1.2-0.4-1.7-0.4c-1.3,0-2,0.9-2,2.6c0,0.8,0.2,1.5,0.5,1.9
	c0.3,0.4,0.8,0.6,1.4,0.6c0.7,0,1.4-0.2,2-0.5l0,1.4c-0.3,0.2-0.6,0.3-0.9,0.4C409.6,259.5,409.2,259.5,408.7,259.5z"/>
<path class="st5" d="M486.2,255.1l-2.7,0l0-1.2l2.7,0l0-2.8l1.2,0l0,2.8l2.7,0l0,1.2l-2.7,0l0,2.8l-1.2,0L486.2,255.1z M498.2,254.4
	c0,1.7-0.3,3-0.8,3.9c-0.6,0.8-1.4,1.3-2.6,1.3c-1.1,0-2-0.4-2.5-1.3c-0.6-0.9-0.9-2.1-0.9-3.8c0-1.8,0.3-3.1,0.8-3.9
	c0.6-0.8,1.4-1.3,2.6-1.3c1.1,0,2,0.4,2.5,1.3C497.9,251.5,498.2,252.7,498.2,254.4z M493.1,254.4c0,1.4,0.1,2.3,0.4,2.9
	c0.3,0.6,0.7,0.9,1.3,0.9c0.6,0,1.1-0.3,1.3-0.9c0.3-0.6,0.4-1.6,0.4-2.9c0-1.3-0.1-2.3-0.4-2.9c-0.3-0.6-0.7-0.9-1.3-0.9
	c-0.6,0-1.1,0.3-1.3,0.9C493.2,252.1,493.1,253.1,493.1,254.4z M499.7,258.6c0-0.3,0.1-0.6,0.3-0.8c0.2-0.2,0.4-0.3,0.8-0.3
	c0.3,0,0.6,0.1,0.8,0.3c0.2,0.2,0.3,0.4,0.3,0.8c0,0.3-0.1,0.6-0.3,0.8c-0.2,0.2-0.4,0.3-0.8,0.3c-0.3,0-0.6-0.1-0.8-0.3
	C499.8,259.1,499.7,258.9,499.7,258.6z M508,259.4l-1.6,0l0-6.4c0-0.8,0-1.4,0.1-1.8c-0.1,0.1-0.2,0.2-0.4,0.4
	c-0.2,0.1-0.7,0.6-1.5,1.3l-0.8-1l2.9-2.3l1.3,0L508,259.4z M511.3,255.2c0-3.9,1.6-5.9,4.8-5.9c0.5,0,0.9,0,1.3,0.1l0,1.3
	c-0.3-0.1-0.7-0.2-1.2-0.1c-1.1,0-1.9,0.3-2.4,0.9c-0.5,0.6-0.8,1.5-0.9,2.8l0.1,0c0.2-0.4,0.5-0.7,0.9-0.9c0.4-0.2,0.8-0.3,1.4-0.3
	c0.9,0,1.6,0.3,2.1,0.8c0.5,0.6,0.8,1.3,0.8,2.3c0,1-0.3,1.9-0.9,2.5c-0.6,0.6-1.4,0.9-2.4,0.9c-0.7,0-1.3-0.2-1.9-0.5
	c-0.5-0.3-0.9-0.8-1.2-1.5C511.5,256.9,511.3,256.1,511.3,255.2z M514.8,258.2c0.6,0,1-0.2,1.3-0.5c0.3-0.4,0.4-0.9,0.5-1.5
	c0-0.6-0.1-1-0.4-1.4c-0.3-0.3-0.7-0.5-1.3-0.5c-0.3,0-0.7,0.1-1,0.2c-0.3,0.1-0.5,0.3-0.7,0.6c-0.2,0.3-0.3,0.5-0.3,0.8
	c0,0.6,0.2,1.2,0.5,1.6C513.8,258,514.3,258.2,514.8,258.2z M522.9,255.6c0-1.2,0.2-2.3,0.5-3.4c0.4-1.1,0.9-2,1.5-2.8l1.4,0
	c-0.6,0.9-1.1,1.8-1.5,2.9c-0.3,1.1-0.5,2.1-0.5,3.3c0,1.1,0.2,2.2,0.5,3.2c0.3,1,0.8,2,1.4,2.8l-1.4,0c-0.7-0.8-1.2-1.7-1.5-2.7
	C523,257.9,522.9,256.8,522.9,255.6z M534.1,254.4c0,1.7-0.3,3-0.8,3.9c-0.6,0.8-1.4,1.3-2.6,1.3c-1.1,0-2-0.4-2.5-1.3
	c-0.6-0.9-0.9-2.1-0.9-3.8c0-1.8,0.3-3.1,0.8-3.9c0.6-0.8,1.4-1.3,2.6-1.3c1.1,0,2,0.4,2.5,1.3C533.9,251.5,534.1,252.8,534.1,254.4
	z M529,254.4c0,1.4,0.1,2.3,0.4,2.9c0.3,0.6,0.7,0.9,1.3,0.9c0.6,0,1.1-0.3,1.3-0.9c0.3-0.6,0.4-1.6,0.4-2.9c0-1.3-0.1-2.3-0.4-2.9
	c-0.3-0.6-0.7-0.9-1.3-0.9c-0.6,0-1.1,0.3-1.3,0.9C529.1,252.1,529,253.1,529,254.4z M535.7,258.6c0-0.3,0.1-0.6,0.3-0.8
	c0.2-0.2,0.4-0.3,0.8-0.3c0.3,0,0.6,0.1,0.8,0.3c0.2,0.2,0.3,0.4,0.3,0.8c0,0.3-0.1,0.6-0.3,0.8c-0.2,0.2-0.4,0.3-0.8,0.3
	c-0.3,0-0.6-0.1-0.8-0.3C535.7,259.2,535.7,258.9,535.7,258.6z M546,254.4c0,1.7-0.3,3-0.8,3.9c-0.6,0.8-1.4,1.3-2.6,1.3
	c-1.1,0-2-0.4-2.5-1.3c-0.6-0.9-0.9-2.1-0.9-3.8c0-1.8,0.3-3.1,0.8-3.9c0.6-0.8,1.4-1.3,2.6-1.3c1.1,0,2,0.4,2.5,1.3
	C545.7,251.5,546,252.8,546,254.4z M540.8,254.4c0,1.4,0.1,2.3,0.4,2.9c0.3,0.6,0.7,0.9,1.3,0.9c0.6,0,1.1-0.3,1.3-0.9
	c0.3-0.6,0.4-1.6,0.4-2.9c0-1.3-0.1-2.3-0.4-2.9c-0.3-0.6-0.7-0.9-1.3-0.9c-0.6,0-1.1,0.3-1.3,0.9
	C541,252.1,540.8,253.1,540.8,254.4z M554,253.7c0,2-0.4,3.4-1.2,4.4c-0.8,1-2,1.5-3.6,1.5c-0.6,0-1,0-1.3-0.1l0-1.3
	c0.4,0.1,0.8,0.2,1.2,0.2c1.1,0,1.9-0.3,2.4-0.9c0.5-0.6,0.8-1.5,0.9-2.7l-0.1,0c-0.3,0.4-0.6,0.7-1,0.9c-0.4,0.2-0.8,0.3-1.3,0.3
	c-0.9,0-1.6-0.3-2.1-0.8c-0.5-0.6-0.8-1.3-0.8-2.3c0-1,0.3-1.9,0.9-2.5c0.6-0.6,1.4-0.9,2.4-0.9c0.7,0,1.3,0.2,1.9,0.5
	c0.5,0.3,0.9,0.8,1.2,1.5C553.8,252,554,252.8,554,253.7z M550.5,250.7c-0.6,0-1,0.2-1.3,0.5c-0.3,0.4-0.4,0.9-0.4,1.5
	c0,0.6,0.1,1,0.4,1.3c0.3,0.3,0.7,0.5,1.3,0.5c0.5,0,1-0.2,1.4-0.5c0.4-0.3,0.6-0.7,0.6-1.1c0-0.4-0.1-0.8-0.2-1.1
	c-0.2-0.4-0.4-0.6-0.7-0.8C551.2,250.8,550.8,250.7,550.5,250.7z M556.5,252.4c0,0.7,0.1,1.2,0.2,1.5c0.1,0.3,0.3,0.5,0.6,0.5
	c0.6,0,0.9-0.7,0.9-2c0-1.3-0.3-2-0.9-2c-0.3,0-0.5,0.2-0.6,0.5C556.6,251.3,556.5,251.8,556.5,252.4z M559.6,252.4
	c0,1-0.2,1.8-0.6,2.4c-0.4,0.5-0.9,0.8-1.7,0.8c-0.7,0-1.2-0.3-1.6-0.8c-0.4-0.5-0.6-1.3-0.6-2.3c0-2.1,0.7-3.1,2.2-3.1
	c0.7,0,1.3,0.3,1.6,0.8C559.4,250.7,559.6,251.4,559.6,252.4z M563,256.4c0,0.7,0.1,1.2,0.2,1.5c0.1,0.3,0.4,0.5,0.7,0.5
	c0.6,0,0.9-0.7,0.9-2c0-1.3-0.3-2-0.9-2c-0.3,0-0.5,0.2-0.7,0.5C563.1,255.3,563,255.8,563,256.4z M566.1,256.4c0,1-0.2,1.8-0.6,2.4
	c-0.4,0.5-0.9,0.8-1.7,0.8c-0.7,0-1.2-0.3-1.6-0.8c-0.4-0.5-0.6-1.3-0.6-2.3c0-2.1,0.7-3.1,2.2-3.1c0.7,0,1.2,0.3,1.6,0.8
	C565.9,254.7,566.1,255.4,566.1,256.4z M564,249.5l-5.5,10l-1.3,0l5.5-10L564,249.5z M570.5,255.6c0,1.2-0.2,2.3-0.5,3.3
	c-0.4,1-0.9,1.9-1.5,2.7l-1.4,0c0.6-0.9,1.1-1.8,1.4-2.8c0.3-1,0.5-2.1,0.5-3.2c0-1.1-0.2-2.2-0.5-3.3c-0.3-1.1-0.8-2-1.5-2.9l1.4,0
	c0.7,0.8,1.2,1.7,1.5,2.8C570.3,253.3,570.5,254.4,570.5,255.6z"/>
<g>
	<path class="st0" d="M499.2,322.4c-0.3,0-0.6,0-0.8-0.1v-1c0.3,0.1,0.5,0.1,0.8,0.1c0.7,0,1-0.4,1-1.3v-7.3h1.2v7.3
		c0,0.8-0.2,1.4-0.6,1.8C500.5,322.2,499.9,322.4,499.2,322.4z M507.3,320.3l-0.2-0.7H507c-0.2,0.3-0.4,0.5-0.7,0.6
		c-0.3,0.2-0.7,0.2-1.1,0.2c-0.7,0-1.2-0.2-1.6-0.5c-0.3-0.3-0.5-0.9-0.5-1.6v-3.7h1.2v3.5c0,0.4,0.1,0.8,0.3,1
		c0.2,0.2,0.5,0.3,0.8,0.3c0.5,0,0.9-0.2,1.1-0.5c0.2-0.3,0.4-0.8,0.4-1.5v-2.9h1.2v5.7H507.3z M511.2,320.3h-1.2v-8h1.2V320.3z
		 M520.4,320.3h-5.1v-0.9l1.9-2c0.6-0.6,1-1,1.1-1.3c0.2-0.2,0.3-0.5,0.4-0.7c0.1-0.2,0.1-0.4,0.1-0.7c0-0.3-0.1-0.6-0.3-0.8
		c-0.2-0.2-0.5-0.3-0.8-0.3c-0.3,0-0.6,0.1-0.8,0.2c-0.3,0.1-0.6,0.3-0.9,0.6l-0.7-0.8c0.4-0.4,0.8-0.6,1.2-0.8
		c0.4-0.1,0.8-0.2,1.3-0.2c0.7,0,1.3,0.2,1.7,0.6c0.4,0.4,0.6,0.9,0.6,1.5c0,0.3-0.1,0.7-0.2,1c-0.1,0.3-0.3,0.6-0.6,1
		c-0.3,0.3-0.7,0.8-1.3,1.3l-1.3,1.3v0.1h3.6V320.3z M523,319.2c-0.2,0.6-0.5,1.5-0.9,2.5h-0.9c0.2-0.9,0.4-1.8,0.5-2.6h1.2
		L523,319.2z M532,320.3h-5.1v-0.9l2-2c0.6-0.6,1-1,1.1-1.3c0.2-0.2,0.3-0.5,0.4-0.7c0.1-0.2,0.1-0.4,0.1-0.7c0-0.3-0.1-0.6-0.3-0.8
		c-0.2-0.2-0.5-0.3-0.8-0.3c-0.3,0-0.6,0.1-0.8,0.2c-0.3,0.1-0.6,0.3-0.9,0.6l-0.7-0.8c0.4-0.4,0.8-0.6,1.2-0.8
		c0.4-0.1,0.8-0.2,1.3-0.2c0.7,0,1.3,0.2,1.7,0.6c0.4,0.4,0.6,0.9,0.6,1.5c0,0.3-0.1,0.7-0.2,1c-0.1,0.3-0.3,0.6-0.6,1
		c-0.3,0.3-0.7,0.8-1.3,1.3l-1.3,1.3v0.1h3.6V320.3z M538.1,316.5c0,1.3-0.2,2.3-0.6,2.9c-0.4,0.6-1.1,1-1.9,1c-0.8,0-1.5-0.3-1.9-1
		c-0.4-0.7-0.7-1.6-0.7-2.9c0-1.3,0.2-2.3,0.6-2.9c0.4-0.6,1.1-1,1.9-1c0.8,0,1.5,0.3,1.9,1C537.8,314.2,538.1,315.2,538.1,316.5z
		 M534.2,316.5c0,1,0.1,1.8,0.3,2.2c0.2,0.4,0.6,0.7,1,0.7c0.5,0,0.8-0.2,1-0.7c0.2-0.4,0.3-1.2,0.3-2.2c0-1-0.1-1.7-0.3-2.2
		c-0.2-0.5-0.6-0.7-1-0.7c-0.5,0-0.8,0.2-1,0.7C534.3,314.7,534.2,315.5,534.2,316.5z M542.6,320.3h-1.2v-4.9c0-0.6,0-1,0-1.4
		c-0.1,0.1-0.2,0.2-0.3,0.3c-0.1,0.1-0.5,0.4-1.2,1l-0.6-0.8l2.2-1.7h1V320.3z M547.6,312.6c0.7,0,1.3,0.2,1.7,0.5
		c0.4,0.3,0.6,0.8,0.6,1.3c0,0.8-0.5,1.4-1.4,1.9c0.6,0.3,1,0.6,1.3,0.9c0.3,0.3,0.4,0.7,0.4,1.1c0,0.6-0.2,1.1-0.7,1.5
		s-1.1,0.6-1.9,0.6c-0.8,0-1.5-0.2-1.9-0.5c-0.5-0.4-0.7-0.8-0.7-1.5c0-0.4,0.1-0.8,0.4-1.1c0.2-0.3,0.6-0.6,1.2-0.9
		c-0.5-0.3-0.8-0.6-1-0.9c-0.2-0.3-0.3-0.7-0.3-1c0-0.5,0.2-1,0.6-1.3C546.3,312.8,546.9,312.6,547.6,312.6z M546.2,318.3
		c0,0.4,0.1,0.6,0.4,0.8c0.3,0.2,0.6,0.3,1,0.3c0.4,0,0.8-0.1,1-0.3c0.2-0.2,0.4-0.5,0.4-0.8c0-0.3-0.1-0.5-0.3-0.8
		c-0.2-0.2-0.6-0.4-1-0.6l-0.2-0.1c-0.5,0.2-0.8,0.4-1,0.7C546.3,317.7,546.2,318,546.2,318.3z M547.6,313.6c-0.3,0-0.6,0.1-0.8,0.3
		c-0.2,0.2-0.3,0.4-0.3,0.7c0,0.2,0,0.3,0.1,0.5c0.1,0.1,0.2,0.3,0.3,0.4c0.1,0.1,0.4,0.3,0.7,0.4c0.4-0.2,0.7-0.4,0.9-0.6
		c0.2-0.2,0.3-0.4,0.3-0.7c0-0.3-0.1-0.5-0.3-0.7C548.2,313.6,547.9,313.6,547.6,313.6z"/>
	<path class="st18" d="M486.4,301.7h77.1c1.8,0,3.3,1.5,3.3,3.3v22.8c0,1.8-1.5,3.3-3.3,3.3h-77.1c-1.8,0-3.3-1.5-3.3-3.3v-22.8
		C483,303.2,484.5,301.7,486.4,301.7z"/>
	<path class="st0" d="M615.3,322.4c-0.3,0-0.6,0-0.8-0.1v-1c0.3,0.1,0.5,0.1,0.8,0.1c0.7,0,1-0.4,1-1.3v-7.3h1.2v7.3
		c0,0.8-0.2,1.4-0.6,1.8C616.6,322.2,616,322.4,615.3,322.4z M623.4,320.3l-0.2-0.7h-0.1c-0.2,0.3-0.4,0.5-0.7,0.6
		c-0.3,0.2-0.7,0.2-1.1,0.2c-0.7,0-1.2-0.2-1.6-0.5c-0.3-0.3-0.5-0.9-0.5-1.6v-3.7h1.2v3.5c0,0.4,0.1,0.8,0.3,1
		c0.2,0.2,0.5,0.3,0.8,0.3c0.5,0,0.9-0.2,1.1-0.5c0.2-0.3,0.4-0.8,0.4-1.5v-2.9h1.2v5.7H623.4z M631.1,320.3h-1.2v-3.5
		c0-0.4-0.1-0.8-0.3-1c-0.2-0.2-0.5-0.3-0.8-0.3c-0.5,0-0.9,0.2-1.1,0.5c-0.2,0.3-0.4,0.8-0.4,1.5v2.9h-1.2v-5.7h1l0.2,0.8h0.1
		c0.2-0.3,0.4-0.5,0.7-0.6c0.3-0.1,0.7-0.2,1.1-0.2c1.4,0,2.1,0.7,2.1,2.1V320.3z M635.2,317.1c0-3,1.2-4.4,3.6-4.4
		c0.4,0,0.7,0,1,0.1v1c-0.3-0.1-0.6-0.1-0.9-0.1c-0.8,0-1.4,0.2-1.8,0.7c-0.4,0.4-0.6,1.1-0.7,2.1h0.1c0.2-0.3,0.4-0.5,0.7-0.6
		c0.3-0.2,0.6-0.2,1-0.2c0.7,0,1.2,0.2,1.6,0.6c0.4,0.4,0.6,1,0.6,1.7c0,0.8-0.2,1.4-0.7,1.9c-0.4,0.5-1,0.7-1.8,0.7
		c-0.5,0-1-0.1-1.4-0.4c-0.4-0.3-0.7-0.6-0.9-1.1C635.3,318.4,635.2,317.8,635.2,317.1z M637.8,319.4c0.4,0,0.7-0.1,1-0.4
		c0.2-0.3,0.3-0.7,0.3-1.2c0-0.4-0.1-0.8-0.3-1c-0.2-0.2-0.5-0.4-1-0.4c-0.3,0-0.5,0.1-0.7,0.2c-0.2,0.1-0.4,0.3-0.5,0.5
		c-0.1,0.2-0.2,0.4-0.2,0.6c0,0.5,0.1,0.9,0.4,1.2C637,319.2,637.4,319.4,637.8,319.4z M642.8,319.2c-0.2,0.6-0.5,1.5-0.9,2.5H641
		c0.2-0.9,0.4-1.8,0.5-2.6h1.2L642.8,319.2z M651.9,320.3h-5.1v-0.9l1.9-2c0.6-0.6,1-1,1.1-1.3c0.2-0.2,0.3-0.5,0.4-0.7
		c0.1-0.2,0.1-0.4,0.1-0.7c0-0.3-0.1-0.6-0.3-0.8c-0.2-0.2-0.5-0.3-0.8-0.3c-0.3,0-0.6,0.1-0.8,0.2c-0.3,0.1-0.6,0.3-0.9,0.6
		l-0.7-0.8c0.4-0.4,0.8-0.6,1.2-0.8c0.4-0.1,0.8-0.2,1.3-0.2c0.7,0,1.3,0.2,1.7,0.6c0.4,0.4,0.6,0.9,0.6,1.5c0,0.3-0.1,0.7-0.2,1
		c-0.1,0.3-0.3,0.6-0.6,1c-0.3,0.3-0.7,0.8-1.3,1.3l-1.3,1.3v0.1h3.6V320.3z M657.9,316.5c0,1.3-0.2,2.3-0.6,2.9
		c-0.4,0.6-1.1,1-1.9,1c-0.8,0-1.5-0.3-1.9-1c-0.4-0.7-0.7-1.6-0.7-2.9c0-1.3,0.2-2.3,0.6-2.9c0.4-0.6,1.1-1,1.9-1
		c0.8,0,1.5,0.3,1.9,1C657.7,314.2,657.9,315.2,657.9,316.5z M654,316.5c0,1,0.1,1.8,0.3,2.2c0.2,0.4,0.6,0.7,1,0.7
		c0.5,0,0.8-0.2,1-0.7c0.2-0.4,0.3-1.2,0.3-2.2c0-1-0.1-1.7-0.3-2.2c-0.2-0.5-0.6-0.7-1-0.7c-0.5,0-0.8,0.2-1,0.7
		C654.1,314.7,654,315.5,654,316.5z M662.4,320.3h-1.2v-4.9c0-0.6,0-1,0-1.4c-0.1,0.1-0.2,0.2-0.3,0.3c-0.1,0.1-0.5,0.4-1.2,1
		l-0.6-0.8l2.2-1.7h1V320.3z M670,315.9c0,1.5-0.3,2.6-0.9,3.3c-0.6,0.7-1.5,1.1-2.7,1.1c-0.5,0-0.8,0-1-0.1v-1
		c0.3,0.1,0.6,0.1,0.9,0.1c0.8,0,1.4-0.2,1.8-0.7c0.4-0.4,0.6-1.1,0.7-2.1h-0.1c-0.2,0.3-0.4,0.5-0.7,0.7c-0.3,0.1-0.6,0.2-1,0.2
		c-0.7,0-1.2-0.2-1.6-0.6c-0.4-0.4-0.6-1-0.6-1.7c0-0.8,0.2-1.4,0.7-1.9c0.4-0.5,1-0.7,1.8-0.7c0.5,0,1,0.1,1.4,0.4
		c0.4,0.3,0.7,0.6,0.9,1.1C669.9,314.6,670,315.2,670,315.9z M667.4,313.6c-0.4,0-0.7,0.1-1,0.4c-0.2,0.3-0.3,0.7-0.3,1.2
		c0,0.4,0.1,0.8,0.3,1c0.2,0.2,0.5,0.4,1,0.4c0.4,0,0.8-0.1,1-0.4c0.3-0.2,0.4-0.5,0.4-0.9c0-0.3-0.1-0.6-0.2-0.9
		c-0.1-0.3-0.3-0.5-0.5-0.6C667.9,313.7,667.7,313.6,667.4,313.6z"/>
	<path class="st18" d="M604.4,301.7h77.1c1.8,0,3.3,1.5,3.3,3.3v22.8c0,1.8-1.5,3.3-3.3,3.3h-77.1c-1.8,0-3.3-1.5-3.3-3.3v-22.8
		C601,303.2,602.5,301.7,604.4,301.7z"/>
	<path class="st0" d="M581.6,319.4c0.3,0,0.6,0,0.9-0.1v0.9c-0.1,0.1-0.3,0.1-0.5,0.1c-0.2,0-0.4,0.1-0.7,0.1
		c-1.2,0-1.7-0.6-1.7-1.8v-3.1h-0.8v-0.5l0.8-0.4l0.4-1.2h0.7v1.3h1.6v0.9h-1.6v3.1c0,0.3,0.1,0.5,0.2,0.7
		C581.2,319.3,581.3,319.4,581.6,319.4z M588.7,317.4c0,0.9-0.2,1.7-0.7,2.2c-0.5,0.5-1.1,0.8-2,0.8c-0.5,0-1-0.1-1.4-0.4
		c-0.4-0.2-0.7-0.6-0.9-1c-0.2-0.5-0.3-1-0.3-1.6c0-0.9,0.2-1.7,0.7-2.2c0.5-0.5,1.1-0.8,2-0.8c0.8,0,1.5,0.3,2,0.8
		C588.5,315.8,588.7,316.5,588.7,317.4z M584.5,317.4c0,1.3,0.5,2,1.5,2c1,0,1.4-0.7,1.4-2c0-1.3-0.5-2-1.5-2
		c-0.5,0-0.9,0.2-1.1,0.5C584.6,316.3,584.5,316.8,584.5,317.4z"/>
</g>
<path class="st0" d="M501.8,506.8h-1.7v-6.7c0-0.8,0-1.4,0.1-1.9c-0.1,0.1-0.2,0.2-0.4,0.4c-0.2,0.1-0.7,0.6-1.6,1.3l-0.8-1.1
	l3.1-2.4h1.4V506.8z M510.5,506.8l-3-8.7h-0.1c0.1,1.3,0.1,2.5,0.1,3.6v5.1H506v-10.4h2.4l2.9,8.3h0l3-8.3h2.4v10.4h-1.6v-5.2
	c0-0.5,0-1.2,0-2c0-0.8,0.1-1.3,0.1-1.5h-0.1l-3.1,8.7H510.5z"/>
<path class="st0" d="M503.8,471.5c0,0.7-0.2,1.2-0.6,1.7c-0.4,0.4-0.9,0.7-1.6,0.9v0.1c0.8,0.1,1.5,0.4,1.9,0.8
	c0.4,0.4,0.6,1,0.6,1.7c0,1-0.4,1.8-1.1,2.3c-0.7,0.5-1.7,0.8-3,0.8c-1.2,0-2.1-0.2-2.9-0.6v-1.5c0.4,0.2,0.9,0.4,1.4,0.5
	c0.5,0.1,1,0.2,1.4,0.2c0.8,0,1.4-0.2,1.8-0.4c0.4-0.3,0.6-0.8,0.6-1.4c0-0.6-0.2-1-0.7-1.2c-0.4-0.3-1.1-0.4-2.1-0.4h-0.9v-1.4h0.9
	c1.7,0,2.5-0.6,2.5-1.7c0-0.4-0.1-0.8-0.4-1c-0.3-0.2-0.7-0.4-1.3-0.4c-0.4,0-0.8,0.1-1.1,0.2c-0.4,0.1-0.8,0.3-1.3,0.6l-0.8-1.2
	c1-0.7,2.1-1.1,3.3-1.1c1.1,0,1.9,0.2,2.5,0.7C503.5,470.1,503.8,470.7,503.8,471.5z M510.7,479.5l-3-8.7h-0.1
	c0.1,1.3,0.1,2.5,0.1,3.6v5.1h-1.5v-10.4h2.4l2.9,8.3h0l3-8.3h2.4v10.4h-1.6v-5.2c0-0.5,0-1.2,0-2c0-0.8,0.1-1.3,0.1-1.5h-0.1
	l-3.1,8.7H510.7z"/>
<path class="st0" d="M497.2,447.7c0-4.1,1.7-6.1,5-6.1c0.5,0,1,0,1.3,0.1v1.4c-0.4-0.1-0.8-0.2-1.3-0.2c-1.1,0-2,0.3-2.5,0.9
	c-0.6,0.6-0.9,1.6-0.9,2.9h0.1c0.2-0.4,0.5-0.7,0.9-0.9c0.4-0.2,0.9-0.3,1.4-0.3c0.9,0,1.7,0.3,2.2,0.9c0.5,0.6,0.8,1.4,0.8,2.4
	c0,1.1-0.3,2-0.9,2.6c-0.6,0.6-1.4,0.9-2.5,0.9c-0.7,0-1.4-0.2-1.9-0.5c-0.6-0.4-1-0.9-1.3-1.6C497.3,449.5,497.2,448.7,497.2,447.7
	z M500.8,450.9c0.6,0,1-0.2,1.3-0.6c0.3-0.4,0.5-0.9,0.5-1.6c0-0.6-0.1-1.1-0.4-1.4c-0.3-0.3-0.7-0.5-1.3-0.5c-0.4,0-0.7,0.1-1,0.2
	c-0.3,0.2-0.5,0.4-0.7,0.6c-0.2,0.3-0.3,0.5-0.3,0.8c0,0.7,0.2,1.2,0.5,1.7C499.8,450.7,500.3,450.9,500.8,450.9z M510.8,452.2
	l-3-8.7h-0.1c0.1,1.3,0.1,2.5,0.1,3.6v5.1h-1.5v-10.4h2.4l2.9,8.3h0l3-8.3h2.4v10.4h-1.6V447c0-0.5,0-1.2,0-2c0-0.8,0.1-1.3,0.1-1.5
	h-0.1l-3.1,8.7H510.8z"/>
<path class="st0" d="M498,419.2l2.5-4.8h1.9l-3.5,6.4v4h-1.7v-4l-3.5-6.4h1.9L498,419.2z M507.3,424.9h-1.7v-9h-3.1v-1.5h7.8v1.5
	h-3.1V424.9z M520.4,419.6c0,1.7-0.5,3-1.4,4c-1,0.9-2.3,1.4-4.1,1.4h-2.9v-10.4h3.2c1.7,0,3,0.4,3.9,1.3
	C520,416.7,520.4,418,520.4,419.6z M518.6,419.7c0-2.5-1.2-3.7-3.5-3.7h-1.5v7.6h1.2C517.4,423.5,518.6,422.2,518.6,419.7z"/>
<path class="st0" d="M503.5,397.8h-1.7v-6.7c0-0.8,0-1.4,0.1-1.9c-0.1,0.1-0.2,0.2-0.4,0.4c-0.2,0.1-0.7,0.6-1.6,1.3l-0.8-1.1
	l3.1-2.4h1.4V397.8z M510.6,392.1l2.5-4.8h1.9l-3.5,6.4v4h-1.7v-4l-3.5-6.4h1.9L510.6,392.1z"/>
<g>
	<path class="st5" d="M494.4,349.3h23.7c5.1,0,9.2,4.1,9.2,9.2v5.3c0,5.1-4.1,9.2-9.2,9.2h-23.7c-5.1,0-9.2-4.1-9.2-9.2v-5.3
		C485.3,353.4,489.4,349.3,494.4,349.3z"/>
	<path class="st0" d="M505.2,366.4l-1-2.9h-4l-1,2.9h-1.8l3.9-10.5h1.9l3.9,10.5H505.2z M503.7,362l-1-2.8c-0.1-0.2-0.2-0.5-0.3-0.9
		c-0.1-0.4-0.2-0.7-0.3-0.9c-0.1,0.6-0.3,1.2-0.6,1.9l-0.9,2.7H503.7z M509.9,366.4h-1.7v-11.1h1.7V366.4z M514,366.4h-1.7v-11.1
		h1.7V366.4z"/>
</g>
</svg>
