<?xml version="1.0" encoding="UTF-8"?>
<svg width="210px" height="60px" viewBox="0 0 210 60" version="1.1" xmlns="http://www.w3.org/2000/svg" xmlns:xlink="http://www.w3.org/1999/xlink">
    <!-- Generator: Sketch 50.2 (55047) - http://www.bohemiancoding.com/sketch -->
    <title>Logo</title>
    <desc>Created with Sketch.</desc>
    <defs></defs>
    <g id="Page-1" stroke="none" stroke-width="1" fill="none" fill-rule="evenodd">
        <g id="Hover-Copy" transform="translate(-81.000000, -219.000000)">
            <g id="Logo" transform="translate(81.000000, 219.000000)">
                <path d="M155.138676,45.3250897 C147.956446,45.3250897 143.494077,41.1533363 143.494077,34.4340992 C143.494077,27.4518352 147.611498,23.1134631 154.240767,23.1134631 L154.801045,23.1103194 C155.629965,23.1103194 156.77561,23.1365173 158.339373,23.3356213 L158.339373,14.9114249 L163.029617,14.9114249 L163.029617,44.5674465 C163.029617,44.5674465 158.57561,45.3250897 155.138676,45.3250897 M155.097909,26.8126064 C150.559233,26.8126064 148.352613,29.2678735 148.352613,34.3177805 C148.352613,38.8489691 151.012892,41.6636714 155.29338,41.6636714 C156.114983,41.6636714 157.056794,41.6123235 158.339373,41.4991486 L158.339373,27.1123104 C157.055749,26.9079668 156.025087,26.8126064 155.097909,26.8126064" id="Fill-1" fill="#404041"></path>
                <polygon id="Fill-3" fill="#404041" points="90.9662718 44.64866 78.3087805 22.5030521 78.3056446 44.64866 73.8955401 44.64866 73.8955401 16.6169081 80.0680139 16.6169081 92.7255052 38.5644599 92.7202787 16.6169081 97.1868293 16.6169081 97.1868293 44.64866"></polygon>
                <path d="M131.276551,45.0784103 C129.146237,45.0784103 126.922892,44.8394855 124.276202,44.3291504 L123.995017,44.2736109 L123.995017,40.3575489 L124.414181,40.4497655 C126.744146,40.9464777 128.758432,41.3761232 130.770627,41.3761232 C132.400244,41.3761232 136.190488,41.1162401 136.190488,38.7165125 C136.190488,36.7013702 133.570976,36.1973226 131.465749,35.7938749 L131.334042,35.767677 C130.943101,35.6901313 130.573066,35.6167771 130.256341,35.5371355 C127.170627,34.733384 123.87899,33.5282806 123.87899,29.3816772 C123.87899,25.3388174 127.072369,23.0197794 132.639617,23.0197794 C135.310348,23.0197794 137.250418,23.3090042 138.807909,23.5416416 L139.56993,23.6558644 L139.56993,27.451416 L139.16331,27.3812056 C137.399895,27.0553038 135.333345,26.7210186 133.342056,26.7210186 C131.135436,26.7210186 128.506516,27.1349454 128.506516,29.1081711 C128.506516,30.74292 130.654599,31.2113385 133.142404,31.753111 C136.618014,32.5118022 140.931951,33.4559744 140.931951,38.2103691 C140.931951,42.5749391 137.412439,45.0784103 131.276551,45.0784103" id="Fill-5" fill="#404041"></path>
                <path d="M176.182474,45.0784103 C171.328118,45.0784103 166.837526,44.2233109 166.837526,38.0154568 C166.837526,31.2605905 173.783519,31.2605905 177.93439,31.2605905 C178.349373,31.2605905 180.299895,31.3496634 180.900941,31.3769092 C180.895714,27.5876451 180.844495,26.6832936 175.362962,26.6832936 C173.189791,26.6832936 170.775157,27.1160829 168.644843,27.4975243 L168.238223,27.5708784 L168.238223,23.8277226 L168.516272,23.7711352 C170.984216,23.2660397 173.364355,23.0197794 175.791533,23.0197794 C181.104774,23.0197794 185.606864,23.5573603 185.606864,30.1634225 L185.606864,44.5743627 L185.282822,44.607896 C181.60338,45.0218228 178.679686,45.0784103 176.182474,45.0784103 M177.816272,34.6013466 C173.814878,34.6013466 171.335436,35.1913233 171.335436,38.1307275 C171.335436,41.5312148 174.500592,41.8152 177.467143,41.8152 C178.578293,41.8152 180.571672,41.6737314 181.18108,41.6276231 L181.18108,34.7166173 C180.320801,34.6841319 178.087003,34.6013466 177.816272,34.6013466" id="Fill-7" fill="#404041"></path>
                <path d="M110.440035,45.0784103 C105.585679,45.0784103 101.095087,44.2233109 101.095087,38.0154568 C101.095087,31.2605905 108.04108,31.2605905 112.191951,31.2605905 C112.605889,31.2605905 114.557456,31.3496634 115.158502,31.3769092 C115.153275,27.5876451 115.102056,26.6832936 109.620523,26.6832936 C107.447352,26.6832936 105.033763,27.1160829 102.902404,27.4975243 L102.495784,27.5708784 L102.495784,23.8277226 L102.773833,23.7711352 C105.242822,23.2660397 107.621916,23.0197794 110.049094,23.0197794 C115.362334,23.0197794 119.864425,23.5573603 119.864425,30.1634225 L119.864425,44.5743627 L119.540383,44.607896 C115.860941,45.0218228 112.937247,45.0784103 110.440035,45.0784103 M112.073833,34.6013466 C108.072439,34.6013466 105.592997,35.1913233 105.592997,38.1307275 C105.592997,41.5312148 108.758153,41.8152 111.724704,41.8152 C112.835854,41.8152 114.829233,41.6737314 115.438641,41.6276231 L115.438641,34.7166173 C114.578362,34.6841319 112.344564,34.6013466 112.073833,34.6013466" id="Fill-9" fill="#404041"></path>
                <path d="M204.264564,54.1699196 L204.264564,44.9765529 C202.434251,45.2343402 201.46108,45.2343402 200.677108,45.2343402 C198.822753,45.2343402 196.761429,44.8298446 195.163171,44.1507951 C191.593484,42.6648503 189.462125,38.8818737 189.462125,34.0300228 C189.462125,31.6040974 190.050627,27.1766524 193.990348,24.7905478 C195.962822,23.6064028 198.300105,23.1002594 201.806028,23.1002594 C203.064564,23.1002594 204.76108,23.1977155 206.400105,23.2930759 L209.059338,23.4303529 L209.059338,52.0416023 L204.264564,54.1699196 Z M201.454808,26.8004506 C196.697666,26.8004506 194.283031,29.2326635 194.283031,34.0300228 C194.283031,40.2001519 197.886167,41.4953761 200.911254,41.4953761 C201.646098,41.4953761 202.476063,41.4953761 204.307422,41.2637866 L204.307422,26.9335359 C202.87223,26.8360797 202.213693,26.8004506 201.454808,26.8004506 Z" id="Fill-11" fill="#404041"></path>
                <path d="M52.9635889,0.000209583191 L69.6465157,0.000209583191 L54.1479094,42.6849703 C53.7360627,43.8303424 52.6385017,44.6487648 51.3538328,44.6487648 L34.9719512,44.6487648 L34.9719512,44.6236148 C36.1238676,44.5072961 37.0844948,43.7381258 37.4649826,42.6849703 L52.9635889,0.000209583191 Z M33.6394077,43.9967515 C32.4833101,43.9967515 31.4934146,43.2967436 31.060662,42.2980797 L27.7219861,33.1151922 L33.4052613,17.4593278 C33.499338,17.1732467 33.7209408,16.8389615 33.7742509,16.7656074 C34.2843554,16.047785 35.119547,15.5793665 36.0644948,15.5793665 C37.2320906,15.5793665 38.2345296,16.2929973 38.6589199,17.3084279 L41.984007,26.4546383 L36.2986411,42.1167902 C36.1690244,42.4741296 35.9829617,42.7361086 35.9296516,42.8105106 C35.419547,43.5272851 34.5854007,43.9967515 33.6394077,43.9967515 Z M34.853101,14.9247334 L34.853101,14.9341647 C33.6227875,14.9855126 32.5806272,15.7787849 32.181324,16.88748 L16.6837631,59.5711928 L-0.000209059233,59.5711928 L15.4973519,16.88748 C15.9112892,15.7421079 17.0067596,14.9247334 18.2924739,14.9247334 L34.853101,14.9247334 Z" id="N" fill="#0090BA"></path>
            </g>
        </g>
    </g>
</svg>