<?xml version="1.0" encoding="utf-8"?>
<!-- Svg Vector Icons : http://www.onlinewebfonts.com/icon -->
<!DOCTYPE svg PUBLIC "-//W3C//DTD SVG 1.1//EN" "http://www.w3.org/Graphics/SVG/1.1/DTD/svg11.dtd">
<svg version="1.1" xmlns="http://www.w3.org/2000/svg" xmlns:xlink="http://www.w3.org/1999/xlink" x="0px" y="0px" viewBox="0 0 1000 1000" enable-background="new 0 0 1000 1000" xml:space="preserve">
<metadata> Svg Vector Icons : http://www.onlinewebfonts.com/icon </metadata>
<g><g><g><path d="M500,990c270.6,0,490-219.4,490-490c0-270.6-219.4-490-490-490C229.4,10,10,229.4,10,500C10,770.6,229.4,990,500,990z M712.3,330.5c0-6.8,5.5-12.3,12.3-12.3h7.2c27.2,0,49.3,22.1,49.3,49.3v264.5c0,27.2-22.1,49.3-49.3,49.3h-7.2c-6.8,0-12.3-5.5-12.3-12.3V330.5z M447.8,256.5h137.4c27.2,0,49.3,22.1,49.3,49.3c0,6.8-5.5,12.3-12.3,12.3c-6.8,0-12.3-5.5-12.3-12.3c0-13.7-11.1-24.8-24.8-24.8H447.8c-13.7,0-24.8,11.1-24.8,24.8c0,6.8-5.5,12.3-12.3,12.3c-6.8,0-12.3-5.5-12.3-12.3C398.5,278.6,420.6,256.5,447.8,256.5z M346.7,330.5c0-6.8,5.5-12.3,12.3-12.3h311c6.8,0,12.3,5.5,12.3,12.3v338.6c0,6.8-5.5,12.3-12.3,12.3H359c-6.8,0-12.3-5.5-12.3-12.3V330.5z M247.3,367.6c0-27.2,22.1-49.3,49.3-49.3h7.9c6.8,0,12.3,5.5,12.3,12.3v338.6c0,6.8-5.5,12.3-12.3,12.3h-7.9c-27.2,0-49.3-22.1-49.3-49.3V367.6z"/></g></g><g></g><g></g><g></g><g></g><g></g><g></g><g></g><g></g><g></g><g></g><g></g><g></g><g></g><g></g><g></g></g>
</svg>