<?xml version="1.0" standalone="no"?>
<!DOCTYPE svg PUBLIC "-//W3C//DTD SVG 20010904//EN"
 "http://www.w3.org/TR/2001/REC-SVG-20010904/DTD/svg10.dtd">
<svg version="1.0" xmlns="http://www.w3.org/2000/svg"
 width="200.000000pt" height="200.000000pt" viewBox="0 0 200.000000 200.000000"
 preserveAspectRatio="xMidYMid meet">
<metadata>
Created by potrace 1.16, written by Peter Selinger 2001-2019
</metadata>
<g transform="translate(0.000000,200.000000) scale(0.100000,-0.100000)"
fill="#000000" stroke="none">
<path d="M960 1911 c0 -28 -1 -29 -82 -41 -393 -56 -692 -355 -748 -747 -12
-82 -13 -83 -41 -83 -27 0 -29 -3 -29 -40 0 -37 2 -40 29 -40 28 0 29 -1 41
-82 56 -393 355 -692 748 -748 81 -12 82 -13 82 -41 0 -27 3 -29 40 -29 37 0
40 2 40 28 0 28 1 29 99 45 246 40 454 173 591 378 72 108 116 220 137 350 16
98 17 99 45 99 26 0 28 3 28 40 0 37 -2 40 -28 40 -28 0 -29 1 -45 99 -63 385
-359 676 -744 731 -82 12 -83 13 -83 41 0 27 -3 29 -40 29 -37 0 -40 -2 -40
-29z m0 -144 l0 -43 -80 -12 c-133 -19 -279 -91 -384 -190 -102 -98 -188 -263
-208 -402 l-12 -80 -42 0 -42 0 5 43 c11 92 37 177 86 277 45 94 61 115 151
205 78 77 120 110 181 142 93 48 185 79 270 92 33 5 63 9 68 10 4 0 7 -18 7
-42z m230 16 c36 -8 111 -37 168 -65 236 -115 410 -355 440 -611 l8 -67 -43 0
c-39 0 -43 2 -43 26 0 54 -33 172 -70 249 -105 218 -320 375 -550 401 l-60 7
0 42 0 43 43 -5 c23 -3 71 -12 107 -20z m-230 -178 l0 -45 40 0 40 0 0 45 c0
29 4 45 13 45 46 -1 163 -36 235 -71 69 -33 102 -58 167 -123 106 -107 168
-228 190 -373 l7 -43 -46 0 -46 0 0 -40 0 -40 46 0 46 0 -7 -42 c-38 -251
-219 -464 -455 -537 -36 -11 -84 -23 -107 -26 l-43 -7 0 46 0 46 -40 0 -40 0
0 -46 0 -46 -42 7 c-146 22 -267 84 -374 190 -65 65 -90 98 -123 167 -35 72
-70 189 -71 236 0 8 16 12 45 12 l45 0 0 40 0 40 -45 0 c-51 0 -51 -3 -30 94
39 186 177 363 347 445 48 23 115 48 150 56 99 21 98 22 98 -30z m-676 -705
c26 -230 183 -445 401 -550 77 -37 195 -70 249 -70 24 0 26 -4 26 -43 l0 -43
-67 8 c-356 43 -653 348 -696 716 l-5 42 43 0 42 0 7 -60z m1514 -7 c-9 -76
-39 -174 -76 -248 -118 -238 -361 -413 -615 -443 l-67 -8 0 43 c0 39 2 43 26
43 54 0 172 33 249 70 149 71 264 186 335 335 37 77 70 195 70 249 0 24 4 26
43 26 l43 0 -8 -67z"/>
<path d="M1275 1368 c-2 -7 -12 -62 -21 -123 -9 -60 -20 -116 -24 -123 -4 -9
-19 6 -43 42 -53 80 -73 78 -134 -19 -27 -42 -74 -116 -105 -165 l-58 -90 -52
22 c-95 39 -99 37 -211 -91 l-99 -114 29 -23 28 -24 55 62 c30 35 71 80 90
101 l35 38 64 -26 c35 -14 72 -25 84 -23 13 2 50 51 116 155 l95 152 48 -71
c50 -77 67 -92 92 -82 19 7 19 6 51 204 14 85 28 167 31 183 5 25 4 27 -31 27
-20 0 -37 -6 -40 -12z"/>
<path d="M560 595 l0 -35 440 0 440 0 0 35 0 35 -440 0 -440 0 0 -35z"/>
</g>
</svg>
